<?xml version="1.0" standalone="yes"?>
<svg xmlns="http://www.w3.org/2000/svg" width="1050" height="550">
<path style="fill:#ffffff; stroke:none;" d="M0 0L0 550L1050 550L1050 0L0 0z"/>
<path style="fill:#030202; stroke:none;" d="M263 11L263 240L264 240C269.225 232.989 276.028 234 284 234C298.577 234 313.453 233.133 328 234.044C334.09 234.425 339.687 239.46 337.254 245.996C334.556 253.243 326.432 252.99 320 253C305.773 253.023 291.19 253.911 277 252.91C270.386 252.444 265.079 249.989 264 243L263 243L263 383L443 383L443 382C429.062 375.364 423.661 353.115 441.004 346.009C451.683 341.634 469.519 345 481 345C485.811 345 491.461 344.212 495.907 346.417C512.11 354.456 506.803 375.428 493 382L493 383L536 383L536 382C521.111 375.693 516.812 349.804 536 345.394C554.138 341.226 577.368 345 596 345C604.563 345 615.766 343.103 623.985 345.649C642.465 351.372 636.992 375.338 623 382L623 383L751 383L751 314L750 314C747.69 320.964 742.446 325.885 735 326.815C717.861 328.956 699.278 327 682 327C671.573 327 659.18 328.824 649 326.471C640.605 324.53 634.08 316.7 634.08 308C634.08 299.3 640.605 291.47 649 289.529C658.882 287.245 670.88 289 681 289C698.473 289 716.595 287.605 734 289.094C741.637 289.748 747.633 294.869 750 302L751 302L751 11L622 11L622 12C639.578 16.5892 639.256 44.2209 621 47.6605C602.904 51.0698 581.426 48 563 48C554.305 48 543.297 49.7811 535 46.8912C518.52 41.1514 519.761 16.8187 536 12L536 11L495 11L495 12C508.653 19.1426 509.654 38.5242 495.985 46.4668C485.926 52.3123 468.306 49 457 49C452.078 49 446.595 49.6887 442.001 47.5826C426.733 40.5836 426.3 19.6906 441 12L424 11L388 11L263 11z"/>
<path style="fill:#2d4360; stroke:none;" d="M433 41L434 41C429.609 29.5983 430.208 16.0991 444 12C429.362 7.99976 428.559 33.0716 433 41z"/>
<path style="fill:#80acc8; stroke:none;" d="M444 11.5293C429.777 14.8182 425.839 36.6689 438.043 44.8665C447.97 51.5342 466.516 48 478 48C482.874 48 488.278 48.6248 493 47.1998C506.904 43.0043 509.883 20.8073 496.96 13.4174C491.783 10.4568 485.73 11 480 11C468.653 11 455.073 8.96875 444 11.5293z"/>
<path style="fill:#2d4360; stroke:none;" d="M492 11L492 12L495 12L492 11z"/>
<path style="fill:#a92246; stroke:none;" d="M536.001 11.5293C520.283 15.1743 517.946 40.2863 533.004 46.517C540.626 49.6706 550.901 48 559 48L602 48C608.921 48 617.337 49.2755 623.996 47.1605C638.535 42.5426 639.239 17.8693 624.999 12.4028C616.728 9.22754 605.727 11 597 11C578.002 11 554.497 7.23999 536.001 11.5293z"/>
<path style="fill:#2d4360; stroke:none;" d="M495.667 12.3333L496.333 12.6667L495.667 12.3333M497.667 13.3333L498.333 13.6667L497.667 13.3333M499 14L500 15L499 14M500 15L501 16L500 15M501.333 16.6667L501.667 17.3333L501.333 16.6667M502 18L503 19L502 18M503.333 19.6667L503.667 20.3333L503.333 19.6667M504 21L504 24L505 24L504 21M505 24L505 35L506 35L505 24M394 29.5725C376.526 34.5588 384.314 62.4742 402 57.4275C419.628 52.3973 411.735 24.5117 394 29.5725M504 35L504 38L505 38L504 35M503.333 38.6667L503.667 39.3333L503.333 38.6667M502 40L503 41L502 40M435 43L436 44L435 43M500 43L501 44L500 43M436.667 44.3333L437.333 44.6667L436.667 44.3333M498.667 44.3333L499.333 44.6667L498.667 44.3333M438 45L439 46L438 45M497 45L498 46L497 45M439.667 46.3333L440.333 46.6667L439.667 46.3333M495.667 46.3333L496.333 46.6667L495.667 46.3333M441 47L441 48L492 49L492 48L441 47M492 47L492 48L495 48L492 47M402 68L402 69C413.333 65.4074 426.211 67 438 67C457.286 67 478.176 64.697 497 69C490.785 64.0581 480.528 66 473 66L427 66C418.79 66 409.693 64.7537 402 68z"/>
<path style="fill:#a92246; stroke:none;" d="M537 66.5293C519.444 70.588 518.287 96.7226 535 102.867C543.698 106.064 555.83 104 565 104L628 104C638.158 104 652.548 106.583 661.999 102.467C677.83 95.5722 676.054 70.4717 659 66.5293C644.059 63.0754 625.331 66 610 66C587.319 66 559.073 61.4264 537 66.5293z"/>
<path style="fill:#80acc8; stroke:none;" d="M406.001 67.5293C390.179 71.1985 389.883 96.4814 404.001 102.471C411.342 105.585 421.178 104 429 104L472 104C478.93 104 487.398 105.294 494 102.867C508.444 97.5564 509.212 72.997 493.999 68.0587C485.299 65.2345 474.065 67 465 67C446.615 67 423.903 63.3776 406.001 67.5293z"/>
<path style="fill:#2d4360; stroke:none;" d="M400 69L401 70L400 69M498 69L499 70L498 69M499 70L500 71L499 70M398 71L399 72L398 71M500 71L501 72L500 71M501.333 72.6667L501.667 73.3333L501.333 72.6667M396 74L397 75L396 74M502 74L503 75L502 74M395 75L396 76L395 75M503.333 75.6667L503.667 76.3333L503.333 75.6667M394 76L394 79L395 79L394 76M504 77L505 91L506 91L504 77M393 79L393 91L394 91L393 79M344.015 85.7423C336.761 88.6033 336.121 99.2799 343.044 102.972C348.075 105.656 363.681 105.393 368.995 103.397C375.966 100.777 376.912 90.9311 370.891 86.7423C365.897 83.2675 349.596 83.5412 344.015 85.7423M394 91L394 94L395 94L394 91M504 91L504 94L505 94L504 91M395.333 94.6667L395.667 95.3333L395.333 94.6667M503.333 94.6667L503.667 95.3333L503.333 94.6667M396 96L397 97L396 96M502 96L503 97L502 96M398 99L399 100L398 99M500 99L501 100L500 99M399.667 100.333L400.333 100.667L399.667 100.333M498 100L499 101L498 100M401 101L402 102L401 101M497 101L498 102L497 101M402.667 102.333L403.333 102.667L402.667 102.333M495.667 102.333L496.333 102.667L495.667 102.333M404 103L404 104L407 104L404 103M492 103L492 104L495 104L492 103M369 122L370 123L369 122z"/>
<path style="fill:#80acc8; stroke:none;" d="M370 122.529C353.062 126.445 351.915 152.953 368 158.867C376.698 162.064 388.83 160 398 160L461 160C471.231 160 485.252 162.456 494.83 158.401C509.904 152.02 508.113 126.256 492 122.529C477.06 119.074 458.33 122 443 122C420.319 122 392.074 117.426 370 122.529z"/>
<path style="fill:#2d4360; stroke:none;" d="M492 122L493 123L492 122z"/>
<path style="fill:#a92246; stroke:none;" d="M537 122.529C519.444 126.588 518.287 152.723 535 158.867C545.764 162.823 561.614 160 573 160L657 160C669.332 160 688.807 163.664 699.996 158C715.396 150.204 712.198 125.351 695 122.329C684.535 120.49 672.618 122 662 122L598 122C578.994 122 555.508 118.251 537 122.529z"/>
<path style="fill:#2d4360; stroke:none;" d="M366 123L367 124L366 123M364 124L365 125L364 124M362 125L363 126L362 125M361 126L362 127L361 126M360 127L361 128L360 127M501 128L502 129L501 128M359 129L360 130L359 129M502 129L504 132L502 129M358 130L359 131L358 130M357 132L358 133L357 132M504 132L504 135L505 135L504 132M356 135L356 147L357 147L356 135M505 135L505 147L506 147L505 135M288.015 141.742C280.284 144.791 280.284 156.209 288.015 159.258C296.89 162.758 311.505 160 321 160C324.794 160 329.484 160.673 332.956 158.821C339.847 155.145 339.421 144.393 331.995 141.603C328.441 140.268 323.734 141 320 141C310.774 141 296.642 138.34 288.015 141.742M504 147L504 150L505 150L504 147M357 149L358 150L357 149M503 150L502 153L503 150M358 151L359 152L358 151M359 152L360 153L359 152M360 154L361 155L360 154M361 155L362 156L361 155M363 156L364 157L363 156M497 156L498 157L497 156M364 157L365 158L364 157M366 158L367 159L366 158M369 159L370 160L369 159M491.667 159.333L492.333 159.667L491.667 159.333M321 187L322 187C332.095 174.062 350.297 178 365 178L454 178C469.857 178 486.64 175.476 501 183C492.713 173.359 474.474 177 463 177L360 177C346.751 177 328.302 173.041 321 187M527 184C544.802 173.293 570.713 178 591 178L733 178C720.83 172.893 699.253 177 686 177L576 177C562.164 177 536.521 171.875 527 184z"/>
<path style="fill:#80acc8; stroke:none;" d="M502 210C503.42 200.333 508.498 190.727 499.671 182.394C491.652 174.824 475.109 178 465 178L376 178C362.363 178 334.592 172.665 324.329 183.213C314.619 193.192 318.46 212.116 333 214.671C345.334 216.839 359.48 215 372 215L450 215C467.135 215 486.501 218.121 502 210M537 178.529C521.356 182.146 518.537 207.832 534.015 213.557C547.579 218.574 567.625 215 582 215L687 215C701.259 215 726.341 219.799 738.96 212.583C753.078 204.509 747.543 180.59 732 178.213C718.914 176.212 704.241 178 691 178L610 178C587.319 178 559.074 173.426 537 178.529z"/>
<path style="fill:#2d4360; stroke:none;" d="M734.667 178.333L735.333 178.667L734.667 178.333M736.667 179.333L737.333 179.667L736.667 179.333M738.667 180.333L739.333 180.667L738.667 180.333M740 181L741 182L740 181M741 182L742 183L741 182M742 183L743 184L742 183M501 184L502 185L501 184M743.333 184.667L743.667 185.333L743.333 184.667M502 185L503 186L502 185M526 185L527 186L526 185M503.333 186.667L503.667 187.333L503.333 186.667M525.333 186.667L525.667 187.333L525.333 186.667M744 186L745 187L744 186M320 188L321 189L320 188M504 188L504 191L505 191L504 188M524 188L524 191L525 191L524 188M745 188L746 189L745 188M505 191L505 202L506 202L505 191M523 191L523 203L524 203L523 191M746 191L747 192L746 191M319 202L320 203L319 202M504 202L504 205L505 205L504 202M746 202L747 203L746 202M524 203L524 206L525 206L524 203M320 205L321 206L320 205M503.333 205.667L503.667 206.333L503.333 205.667M745 205L746 206L745 205M525 206L526 207L525 206M321 207L322 208L321 207M502 207L503 208L502 207M526 207L527 208L526 207M744 207L745 208L744 207M322 208L323 209L322 208M501 208L502 209L501 208M743 208L744 209L743 208M323 210L324 211L323 210M500 210L501 211L500 210M528 210L529 211L528 210M742 210L743 211L742 210M499 211L500 212L499 211M326 212L327 213L326 212M497 212L498 213L497 212M531 212L532 213L531 212M739 212L740 213L739 212M327.667 213.333L328.333 213.667L327.667 213.333M495.667 213.333L496.333 213.667L495.667 213.333M532 213L532 214C548.704 221.049 575.944 216 594 216L734 216L734 215L603 215C580.018 215 554.417 218.124 532 213M737.667 213.333L738.333 213.667L737.667 213.333M329 214L329 215L332 215L329 214M492 214L492 215L495 215L492 214M734 214L734 215L737 215L734 214M332 215L332 216L492 216C479.593 210.794 457.515 215 444 215L332 215M363 236L363 237C374.199 232.687 386.153 234 398 234L458 234C468.813 234 483.872 231.324 493.999 235.483C506.352 240.556 506.029 253.537 502 264C511.677 253.986 504.059 235.624 491 233.329C481.47 231.654 470.666 233 461 233L401 233C389.099 233 373.792 230.343 363 236M660 236L660 237C683.256 230.655 717.744 230.655 741 237C734.737 231.946 726.587 233 719 233C700.684 233 677.082 229.041 660 236M269.015 234.742C260.97 237.916 262.437 249.185 270.005 251.852C283.046 256.448 302.261 253 316 253C321.137 253 328.227 254.129 332.956 251.741C339.762 248.305 339.762 236.63 331.985 234.434C318.925 230.746 300.579 234 287 234C281.561 234 274.148 232.717 269.015 234.742z"/>
<path style="fill:#80acc8; stroke:none;" d="M369 234.529C352.365 238.376 352.895 264.385 368 269.867C376.734 273.037 388.804 271 398 271L461 271C471.157 271 485.549 273.584 494.999 269.467C509.848 262.998 507.932 238.214 492 234.529C484.207 232.727 474.971 234 467 234L418 234C402.67 234 383.94 231.074 369 234.529z"/>
<path style="fill:#a92246; stroke:none;" d="M535 234.533C518.399 238.575 519.957 263.548 534.001 269.633C540.92 272.631 550.598 271 558 271L602 271C608.93 271 617.398 272.293 624 269.867C637.799 264.794 640.035 240.043 624.985 234.919C616.782 232.126 605.595 234 597 234C577.833 234 553.61 230.003 535 234.533z"/>
<path style="fill:#80acc8; stroke:none;" d="M667 234.529C651.641 238.01 648.901 261.851 663.004 269C669.005 272.042 676.485 271 683 271C698.319 271 719.329 274.755 734 270.351C748.454 266.012 752.526 242.987 737.985 235.92C731.455 232.746 723.048 234 716 234C700.629 234 681.994 231.129 667 234.529z"/>
<path style="fill:#2d4360; stroke:none;" d="M658 238L659 239L658 238M657 239L658 240L657 239M743 240L744 241L743 240z"/>
<path style="fill:#030202; stroke:none;" d="M263 241L264 242L263 241z"/>
<path style="fill:#2d4360; stroke:none;" d="M359 241L360 242L359 241M656 241L657 242L656 241M655.333 242.667L655.667 243.333L655.333 242.667M357.333 243.667L357.667 244.333L357.333 243.667M745 243L746 244L745 243M654 244L653 258L654 258L654 244M356 246L356 258L357 258L356 246M746 246L747 247L746 246M746.333 257.667L746.667 258.333L746.333 257.667M654 258L654 261L655 261L654 258M357 260L358 261L357 260M745 260L746 261L745 260M655.333 261.667L655.667 262.333L655.333 261.667M358 262L359 263L358 262M744 262L745 263L744 262M359 263L360 264L359 263M656 263L657 264L656 263M743.333 263.667L743.667 264.333L743.333 263.667M361 266L362 267L361 266M500 266L501 267L500 266M658 266L659 267L658 266M741 266L742 267L741 266M362.667 267.333L363.333 267.667L362.667 267.333M498.667 267.333L499.333 267.667L498.667 267.333M659.667 267.333L660.333 267.667L659.667 267.333M738 269L741 267L738 269M364 268L365 269L364 268M497 268L498 269L497 268M661 268L662 269L661 268M365.667 269.333L366.333 269.667L365.667 269.333M495.667 269.333L496.333 269.667L495.667 269.333M662.667 269.333L663.333 269.667L662.667 269.333M736.667 269.333L737.333 269.667L736.667 269.333M367 270L367 271L370 271L367 270M492 270L492 271L495 271L492 270M664 270L664 271L667 271L664 270M734.667 270.333L735.333 270.667L734.667 270.333M370 271L370 272L492 272C482.211 267.892 465.634 271 455 271L370 271M667 271L667 272L734 272L713 271L667 271M344.015 289.742C337.454 292.33 335.47 303.084 342.109 306.821C347.361 309.778 364.406 309.519 369.956 307.258C376.594 304.553 376.328 294.525 370.891 290.742C365.897 287.268 349.597 287.541 344.015 289.742M406 289L406 290L493 290L466 289L406 289z"/>
<path style="fill:#a92246; stroke:none;" d="M537 289.529C520.479 293.349 518.062 317.436 533.004 325C539.008 328.039 546.483 327 553 327C568.319 327 589.329 330.755 604 326.351C619.552 321.683 621.917 298.07 606.996 290.92C600.428 287.772 592.076 289 585 289C569.975 289 551.643 286.144 537 289.529z"/>
<path style="fill:#2d4360; stroke:none;" d="M648 289L648 290L738 290L710 289L648 289M403 290L404 291L403 290z"/>
<path style="fill:#80acc8; stroke:none;" d="M404.001 290.653C389.319 295.28 391.314 319.94 404.001 325.467C410.529 328.311 419.037 327 426 327L471 327C478.504 327 487.972 328.528 494.999 325.467C508.368 319.643 509.05 295.049 493.996 290.638C487.627 288.772 479.589 290 473 290L431 290C422.749 290 411.913 288.159 404.001 290.653z"/>
<path style="fill:#2d4360; stroke:none;" d="M494 290L495 291L494 290M645 290L646 291L645 290z"/>
<path style="fill:#80acc8; stroke:none;" d="M646.001 290.653C629.7 295.789 632.632 320.653 647 325.867C653.892 328.369 662.769 327 670 327L715 327C722.773 327 732.725 328.636 739.999 325.467C752.686 319.94 754.681 295.28 739.999 290.653C731.814 288.073 720.539 290 712 290L668 290C661.195 290 652.541 288.592 646.001 290.653z"/>
<path style="fill:#2d4360; stroke:none;" d="M740 290L741 291L740 290M401 291L402 292L401 291M496 291L497 292L496 291M643 291L644 292L643 291M399 292L400 293L399 292M498 292L499 293L498 292M641 292L642 293L641 292M398 293L399 294L398 293M640 293L641 294L640 293M745 293L746 294L745 293M397 294L398 295L397 294M500 294L501 295L500 294M639 294L640 295L639 294M501 295L504 302L505 302L501 295M638.333 295.667L638.667 296.333L638.333 295.667M396 296L397 297L396 296M747 296L748 297L747 296M395.333 297.667L395.667 298.333L395.333 297.667M637 297L638 298L637 297M748.333 297.667L748.667 298.333L748.333 297.667M636.333 298.667L636.667 299.333L636.333 298.667M394 299L394 302L395 302L394 299M749 299L749 302L750 302L749 299M635 300L635 303L636 303L635 300M393 302L393 314L394 314L393 302M505 302L505 314L506 314L505 302M750 302L750 314L751 314L750 302M634 303L634 313L635 313L634 303M394 314L394 317L395 317L394 314M504 314L504 317L505 317L504 314M635.333 314.667L635.667 315.333L635.333 314.667M749 314L749 317L750 317L749 314M615 316L616 317L615 316M636.333 316.667L636.667 317.333L636.333 316.667M395.333 317.667L395.667 318.333L395.333 317.667M503.333 317.667L503.667 318.333L503.333 317.667M748.333 317.667L748.667 318.333L748.333 317.667M637 318L638 319L637 318M396 319L397 320L396 319M502 319L503 320L502 319M638.333 319.667L638.667 320.333L638.333 319.667M747 319L748 320L747 319M397 321L398 322L397 321M398 322L399 323L398 322M500 322L501 323L500 322M640 322L641 323L640 322M745 322L746 323L745 322M399.667 323.333L400.333 323.667L399.667 323.333M498 323L499 324L498 323M641.667 323.333L642.333 323.667L641.667 323.333M743.667 323.333L744.333 323.667L743.667 323.333M401 324L402 325L401 324M643 324L644 325L643 324M742 324L743 325L742 324M403 325L404 326L403 325M495 325L496 326L495 325M645 325L646 326L645 325M740 325L741 326L740 325M406 326L407 327L406 326M492 326L493 327L492 326M648 326L649 327L648 326M737 326L738 327L737 326M394 345.573C375.863 350.77 385.193 377.544 403 372.427C419.823 367.593 411.543 340.545 394 345.573M435 350L444 346C440.163 344.951 437.445 347.158 435 350z"/>
<path style="fill:#80acc8; stroke:none;" d="M502 377C503.388 367.55 508.222 358.804 500.468 350.214C496.741 346.086 491.3 345.069 486 345.004C472.969 344.844 443.713 339.612 434.8 351.105C427.658 360.314 430.128 377.408 442.004 381.16C447.836 383.004 454.95 382 461 382C474.851 382 489.717 384.352 502 377z"/>
<path style="fill:#2d4360; stroke:none;" d="M492 345L492 346L495 346L492 345M527 351L537 346C532.717 344.83 529.534 347.773 527 351z"/>
<path style="fill:#80acc8; stroke:none;" d="M537 345.529C521.361 349.145 518.526 374.979 534.001 380.811C541.638 383.689 551.944 382 560 382L603 382C609.635 382 617.606 383.18 623.996 381.16C639.083 376.393 638.658 351.231 623.999 346.109C615.71 343.212 604.688 345 596 345C577.606 345 554.913 341.388 537 345.529z"/>
<path style="fill:#2d4360; stroke:none;" d="M622 345L622 346L625 346L622 345M495.667 346.333L496.333 346.667L495.667 346.333M625.667 346.333L626.333 346.667L625.667 346.333M497.667 347.333L498.333 347.667L497.667 347.333M627.667 347.333L628.333 347.667L627.667 347.333M500 349L501 350L500 349M630 349L631 350L630 349M434 351L435 352L434 351M501 351L502 352L501 351M631 351L632 352L631 351M433 352L434 353L433 352M502 352L503 353L502 352M526 352L527 353L526 352M632 352L633 353L632 352M432.333 353.667L432.667 354.333L432.333 353.667M503.333 353.667L503.667 354.333L503.333 353.667M525.333 353.667L525.667 354.333L525.333 353.667M633.333 353.667L633.667 354.333L633.333 353.667M431 355L431 358L432 358L431 355M504 355L504 358L505 358L504 355M524 355L524 358L525 358L524 355M634 355L634 358L635 358L634 355M430 358L432 374L433 374L430 358M505 358L503 374L504 374C506.048 369.147 507.09 362.981 505 358M523 358L523 370L524 370L523 358M635 358L634 372L635 372L635 358M524 370L524 373L525 373L524 370M633.333 372.667L633.667 373.333L633.333 372.667M525 373L525 375L527 375L525 373M433 374L434 375L433 374M502 374L503 375L502 374M632 374L633 375L632 374M501 375L502 376L501 375M435 377L436 378L435 377M500 377L501 378L500 377M630 377L631 378L630 377M438 379L439 380L438 379M497 379L498 380L497 379M531 379L532 380L531 379M627 379L628 380L627 379M439 380L440 381L439 380M496 380L497 381L496 380M532 380L533 381L532 380M626 380L627 381L626 380M441.667 381.333L442.333 381.667L441.667 381.333M443 382L443 383L495 382L479 382L443 382M533 381L533 382L536 382L533 381M623.667 381.333L624.333 381.667L623.667 381.333M536 382L536 383L623 383L596 382L536 382z"/>
<path style="fill:#030202; stroke:none;" d="M12 412L12 418C26.5895 414.527 56.89 413.252 70 421.214C85.6592 430.724 84.2964 454.241 68 462L68 463C85.7713 470.817 88.8778 496.196 71 506.095C55.2879 514.795 29.4906 510 12 510L12 545L1040 545L1040 510L1020 510C1020 496.802 1024.4 473.976 1018.69 462.001C1013.44 451.001 997.336 449.924 991.442 461.004C984.748 473.588 989 496.049 989 510L970 510L970 486C970 477.892 971.46 467.214 966.852 460.04C960.928 450.818 945.753 450.825 940.724 461.015C936.015 470.558 938 483.704 938 494C938 497.843 939.208 504.332 936.972 507.682C934.111 511.97 923.495 510 919 510L919 437L938 437L938 447L939 447C950.238 431.387 977.142 432.453 985 451L986 451C1001.25 429.345 1035.07 431.983 1039 461L1040 461L1040 412L12 412z"/>
<path style="fill:#a92246; stroke:none;" d="M373 448L372 448C363.89 432.497 338.008 432.414 326.443 444.213C314.631 456.264 313.345 481.677 321.532 496C331.247 512.994 361.764 518.508 372 499C372.812 501.746 372.233 507.095 374.603 508.972C377.802 511.505 391.352 511.33 392.682 506.852C395.227 498.28 393 485.94 393 477C393 457.879 396.059 435.885 392.852 417.059C391.908 411.518 375.885 410.68 373.603 415.318C369.801 423.045 373 439.386 373 448M12 510C29.8751 510 57.2298 515.168 72.9961 505.521C88.7987 495.851 85.8807 468.311 68 463C82.231 454.244 87.7334 431.41 70.9992 421.214C60.3953 414.752 45.8519 417 34 417C29.1031 417 17.5825 414.876 13.6034 418.028C9.54488 421.242 12 436.187 12 441L12 510M731 419L731 437L721 437L721 454L731 454C731 468.875 725.682 497.9 741.004 506.914C748.639 511.406 758.529 510 767 510L767 494C744.887 493.544 751 470.375 751 454L767 454L767 437L751 437L751 419L731 419z"/>
<path style="fill:#030202; stroke:none;" d="M32 433L32 455C38.7996 455 50.8315 457.311 56.7863 453.682C62.703 450.076 62.2197 439.756 56.811 436.009C50.2901 431.492 39.4928 433 32 433z"/>
<path style="fill:#a92246; stroke:none;" d="M116 448L115 448L115 437L95 437L95 510L115 510C115 496.152 109.295 467.263 124.004 459.442C128.944 456.815 134.582 457.001 140 457L140 436C130.766 436.076 120.221 439.029 116 448M204 440C187.354 439.276 175.036 431.925 159.004 442.916C135.422 459.083 143.535 498.688 168 508.802C193.867 519.495 222.037 499.604 220.96 472C220.402 457.71 212.787 450.158 204 440M284 499L285 499L285 510L305 510L305 437L285 437L285 447C273.116 432.749 248.465 431.93 236.529 447.015C226.18 460.095 225.759 484.048 234.711 497.995C244.566 513.351 275.124 517.875 284 499M405 485C410.06 509.452 446.318 523.422 463.15 500.714C477.736 481.035 451.828 470.878 438 466.791C433.614 465.495 424.526 462.969 424.832 457.015C425.119 451.428 432.661 449.312 437 451.013C446.264 454.644 445.756 462.072 457 461.999C459.306 461.984 463.296 462.438 464.292 459.682C466.226 454.33 458.648 445.476 454.961 442.532C443.674 433.522 421.312 432.806 411.214 444.044C408.935 446.58 407.297 449.674 406.529 453C399.99 481.337 434.561 472.474 445.526 486.213C453.158 495.774 434.673 497.63 429.108 493.347C426.545 491.375 425.797 487.859 423.302 486.028C419.377 483.146 409.71 485 405 485M499 448L498 448L498 437L479.028 438.603L478 460L478 519L479.028 542.397L498 544L498 499C503.939 506.272 510.339 510.878 520 510.996C552.254 511.39 567.585 466.64 544.535 444.518C532.713 433.171 507.406 431.941 499 448M634 483C628.573 483 620.24 481.421 615.213 483.603C611.227 485.334 609.925 490.654 605.985 492.86C594.179 499.472 583.006 488.438 582 477L635 477C635 463.163 633.184 449.653 620.424 441.275C598.324 426.762 564.278 440.712 563.039 468C562.297 484.348 566.225 499.836 582 507.724C601.547 517.497 632.749 507.371 634 483M716 482C711.178 480.575 700.784 479.286 696.263 482.028C689.089 486.379 687.874 496.054 677.001 493.605C659.29 489.616 659.675 459.299 676 453.855C686.588 450.324 688.739 460.936 696.375 464.397C701.498 466.718 710.426 465 716 465C707.182 426.903 645.956 425.785 644.039 468C643.525 479.322 644.305 491.099 652.297 499.91C672.841 522.559 709.482 510.16 716 482M798 449L798 437L778 437L778 491L779.603 508.972L798 510C798 497.187 793.007 470.657 804.105 461.558C809.681 456.986 817.189 457.001 824 457L824 436C812.854 436.094 805.218 440.807 798 449M939 447L938 447L938 437L919 437L919 510C923.134 510 934.158 511.95 936.972 508.397C939.301 505.457 938 498.531 938 495C938 484.813 936.314 472.646 940.286 463.001C945.127 451.246 960.267 450.507 966.852 461.015C971.259 468.047 970 478.086 970 486L970 510L989 510C989 496.201 985.232 475.769 990.97 463C996.7 450.249 1012.83 450.677 1018.69 463C1024.29 474.778 1020 497.033 1020 510L1040 510C1040 491.396 1044.89 464.661 1035.12 448.015C1024.59 430.068 994.536 432.696 986 451C977.558 435.816 948.329 427.422 939 447M831 437C831 454.833 826.055 481.771 835.188 497.83C844.259 513.778 873.274 517.558 882 499L883 499C883.002 512.788 891.516 510 903 510L903 437L883 437C883 450.711 887.362 473.622 880.836 485.999C874.994 497.077 859.096 496.509 853.089 485.999C846.395 474.285 851 450.276 851 437L831 437z"/>
<path style="fill:#030202; stroke:none;" d="M582 468L615 468C614.745 446.243 585.019 447.857 582 468M180 453.469C157.665 457.682 162.074 498.243 186 493.66C208.67 489.317 203.662 449.006 180 453.469M263 453.642C239.695 460.062 247.531 500.572 272 493.2C293.548 486.708 286.019 447.301 263 453.642M352 453.471C329.422 457.462 332.985 497.6 357 493.667C380.963 489.743 376.211 449.192 352 453.471M513 453.486C489.245 458.275 495.732 497.894 520 493.67C542.909 489.682 536.977 448.653 513 453.486M32 470L32 494C39.0999 494 49.3918 495.881 55.9606 492.91C63.8318 489.351 65.9239 477.12 57.8951 472.442C50.6758 468.236 40.0046 470 32 470M373 497L374 498L373 497z"/>
</svg>
