<?xml version="1.0" standalone="yes"?>
<svg xmlns="http://www.w3.org/2000/svg" width="209" height="57">
<path style="fill:#ffffff; stroke:none;" d="M0 0L0 4L209 4L209 0L0 0z"/>
<path style="fill:#03bffb; stroke:none;" d="M0 4L0 15L10 18L0 17L0 53L209 53L209 4L2 4L3 8L2 8L0 4z"/>
<path style="fill:#58d1fb; stroke:none;" d="M1 4L2 8L3 8L1 4M57 8L60 5L57 8z"/>
<path style="fill:#1066b6; stroke:none;" d="M55 8C42.5725 12.9463 35.1218 16.288 35 31L36 31L38 30L44 17L43 15C46.8353 13.4258 56.2469 13.7572 55 8M4 9L14 15L14 16L17 15L21 36L22 36L22 29L23 29L25 30L25 34C30.0093 20.0334 16.563 9.57545 4 9z"/>
<path style="fill:#072f80; stroke:none;" d="M11 13L16 15L11 13M43 15L43 16L50 14L43 15z"/>
<path style="fill:#03bffb; stroke:none;" d="M16 13L19 16L16 13z"/>
<path style="fill:#1066b6; stroke:none;" d="M12 14L13 15L12 14z"/>
<path style="fill:#03bffb; stroke:none;" d="M42 14L41 16L42 14z"/>
<path style="fill:#1066b6; stroke:none;" d="M47.6667 14.3333L48.3333 14.6667L47.6667 14.3333z"/>
<path style="fill:#58d1fb; stroke:none;" d="M0 15L0 17L10 18L0 15z"/>
<path style="fill:#072f80; stroke:none;" d="M16 15L17 16L16 15z"/>
<path style="fill:#1066b6; stroke:none;" d="M45 15L46 16L45 15M60 15L61 16L60 15z"/>
<path style="fill:#072f80; stroke:none;" d="M61 15L61 23L62 23L62 20L67 23L61 15z"/>
<path style="fill:#1066b6; stroke:none;" d="M62 15L63 16L62 15z"/>
<path style="fill:#072f80; stroke:none;" d="M76 15L73 23L75 20L76 20L77 23L78 23L78 15L76 15z"/>
<path style="fill:#1066b6; stroke:none;" d="M78 15L78 23L77 23L76 20L75 20L76 34L78 34L78 15M88 15L89 16L88 15z"/>
<path style="fill:#072f80; stroke:none;" d="M89 15L86 23L88 20L92 23L93 23L89 15z"/>
<path style="fill:#1066b6; stroke:none;" d="M90 15L91 16L90 15M105 15L106 16L105 15z"/>
<path style="fill:#072f80; stroke:none;" d="M100 23C106.447 18.654 108.724 19.1365 116 19C110.406 12.9463 102.236 15.1065 100 23z"/>
<path style="fill:#1066b6; stroke:none;" d="M111.667 15.3333L112.333 15.6667L111.667 15.3333M118 15L119 16L118 15z"/>
<path style="fill:#072f80; stroke:none;" d="M119 15L119 22L120 22L121 20L124 23L121 15L119 15M134 15L130 22C132.748 21.4214 134.574 19.6973 135 23L136 23L136 15L134 15z"/>
<path style="fill:#1066b6; stroke:none;" d="M136 15L136 23L135 23L135 20L128 24L127 24L123 23L127 29L128 29L134 22L134 34L136 34L136 15M146 15L147 16L146 15z"/>
<path style="fill:#072f80; stroke:none;" d="M147 15L144 23L147 20L151 22L149 15L147 15z"/>
<path style="fill:#1066b6; stroke:none;" d="M159 15L160 16L159 15z"/>
<path style="fill:#072f80; stroke:none;" d="M159 16L159 17C165.123 17.0216 168.059 18.2636 172 23C173.528 14.7829 165.043 14.2145 159 16z"/>
<path style="fill:#1066b6; stroke:none;" d="M169 15L170 16L169 15z"/>
<path style="fill:#072f80; stroke:none;" d="M176 15L177 23L178 23L178 15L176 15z"/>
<path style="fill:#1066b6; stroke:none;" d="M178 15L178 23L177 23L177 21L176 21L176 34L178 34L179 26L190 34L182 25L182 24L186 20L183 23L180 21L181 23L180 23L178 15M187 15L185 18L187 15z"/>
<path style="fill:#072f80; stroke:none;" d="M188 15L182 23L190 16L188 15z"/>
<path style="fill:#1066b6; stroke:none;" d="M189 15L190 16L189 15M192 15L193 16L192 15z"/>
<path style="fill:#072f80; stroke:none;" d="M192 17L207 23C204.56 16.8508 198.045 12.4262 192 17z"/>
<path style="fill:#1066b6; stroke:none;" d="M200.667 15.3333L201.333 15.6667L200.667 15.3333z"/>
<path style="fill:#58d1fb; stroke:none;" d="M50 18L53 16L50 18z"/>
<path style="fill:#1066b6; stroke:none;" d="M63 16L64 17L63 16M103 16L104 17L103 16M121 16L122 17L121 16M133 16L134 17L133 16M149 16L150 17L149 16M74 17L75 18L74 17M87 17L88 18L87 17M91 17L92 18L91 17M102 17L103 18L102 17M108.667 17.3333L109.333 17.6667L108.667 17.3333M115 17L116 18L115 17M122 17L123 18L122 17M132 17L133 18L132 17M145.333 17.6667L145.667 18.3333L145.333 17.6667M159 17L159 18L168 18L159 17M189 17L190 18L189 17M192 17L193 18L192 17M194 17L194 18L199 18L194 17M204 17L205 18L204 17M10 18L12 45L13 45L13 39L14 39L17 49L18 49L14 18L10 18M46 18L42 51L48 51L48 50L43 50L50 19L46 18M50 18L51 19L50 18M101 18L102 19L101 18M105 18L106 19L105 18M111 18L112 19L111 18M118 18C118 23.0743 116.283 30.9422 121 34C121 29.7891 119.721 22.1802 123 23C122.071 21.0633 121.335 20.0294 120 22L119 22L118 18M172 18L173 19L172 18M188 18L189 19L188 18M200 18L201 19L200 18M205 18L206 19L205 18M60 19L60 34L63 34L64 20L62 23L61 23L60 19M65 19L66 20L65 19M73 19L74 20L73 19M92.3333 19.6667L92.6667 20.3333L92.3333 19.6667M100 19L101 20L100 19M104 19L105 20L104 19M113 19L114 20L113 19M115 19L116 20L115 19M123 19L124 20L123 19M131 19L132 20L131 19M150 19L151 20L150 19M187 19L188 20L187 19M202 19L203 20L202 19M72 20L73 21L72 20M86 20L87 21L86 20M88 23L89 23L91 22C89.5827 19.4766 88.5169 20.5416 88 23M103 20L104 21L103 20M114 20L115 21L114 20M124 20L125 21L124 20M130 20L131 21L130 20M144.333 20.6667L144.667 21.3333L144.333 20.6667M147 20L149 22L149 20L147 20M170 20C168.341 25.4651 164.004 24.9961 159 25L159 34L162 34L162 28L173 34L169 27L173 22L170 20M203 20L204 21L203 20M206.333 20.6667L206.667 21.3333L206.333 20.6667M66 21L67 22L66 21M71 21L70 24L68 22L64 22L69 29L70 29L74 24L74 23L71 21M99 21C99.0636 28.0298 110.057 41.9409 115.396 30.6057C118.367 24.2968 110.508 20.5897 107 26L113 26C111.342 36.1569 102.392 29.1397 102 22L99 21M102 21L103 22L102 21M146.333 21.6667L146.667 22.3333L146.333 21.6667M151 21L149 22L153 32L145 32L145 34L156 34L151 21M173 21L174 22L173 21M204.333 21.6667L204.667 22.3333L204.333 21.6667M85 22L81 34L88 23L85 22M91 22L95 32L87 32L87 34L98 34L94 22L91 22M143 22L139 34C143.365 32.7285 147.484 24.9758 143 22z"/>
<path style="fill:#072f80; stroke:none;" d="M180 22L181 23L180 22z"/>
<path style="fill:#1066b6; stroke:none;" d="M207 22C202.55 27.7616 201.117 31.8038 193 32L193 34C199.877 33.9803 210.604 31.3301 207 22z"/>
<path style="fill:#072f80; stroke:none;" d="M14 26L15 27L14 26M45 26L45 29L46 29L45 26M15 28L15 33L16 33L15 28M38 28L36 29L32 42C37.398 39.4057 40.4156 33.811 38 28M22 29C22.0178 35.2134 22.5542 39.7544 29 42L25 30L22 29z"/>
<path style="fill:#1066b6; stroke:none;" d="M34 32L34 37L35 37L34 32M38.3333 35.6667L38.6667 36.3333L38.3333 35.6667M22 37L23 38L22 37M26 37L27 38L26 37M33 38L34 39L33 38M37 38L38 39L37 38z"/>
<path style="fill:#072f80; stroke:none;" d="M13 39L11 50L18 51L17 46L13 39z"/>
<path style="fill:#1066b6; stroke:none;" d="M23 39L24 40L23 39M27 39L28 40L27 39M36 39L35 41L37 41L36 39M24 40L25 41L24 40M32 40L33 41L32 40M26 41L27 42L26 41M31 41L31 43L33 43L31 41M92 41L93 42L92 41z"/>
<path style="fill:#072f80; stroke:none;" d="M16 42L17 43L16 42z"/>
<path style="fill:#1066b6; stroke:none;" d="M28 42L29 43L28 42z"/>
<path style="fill:#072f80; stroke:none;" d="M47 42L43 50L49 51L47 42z"/>
<path style="fill:#1066b6; stroke:none;" d="M48.3333 46.6667L48.6667 47.3333L48.3333 46.6667M11 48L12 49L11 48M49.3333 49.6667L49.6667 50.3333L49.3333 49.6667M11 50L11 51L17 51L11 50M18 50L19 51L18 50z"/>
<path style="fill:#ffffff; stroke:none;" d="M0 53L0 57L209 57L209 53L0 53z"/>
</svg>
