<?xml version="1.0" standalone="yes"?>
<svg xmlns="http://www.w3.org/2000/svg" width="1701" height="606">
<path style="fill:#010101; stroke:none;" d="M0 0L0 606L1701 606L1701 0L0 0z"/>
<path style="fill:#ff9d1a; stroke:none;" d="M1188 56C1188 68.8483 1194.37 70 1206 70L1206 79L1211 80L1210 83L1213 88L1216 93C1219.75 95.0459 1220.43 97.9023 1221 102L1225 102L1224 115L1229 115L1230 120C1235.55 121.586 1242.39 128.421 1244 134L1248 134L1248 139L1253 139L1254 144L1259 148L1271 153L1271 157L1276 157L1276 162C1279.25 162.134 1280.05 162.898 1281 166C1284.1 166.948 1284.87 167.749 1285 171C1289.92 171.09 1298.53 179.419 1300 184L1304 189C1307.81 189.045 1311.65 188.936 1313 193L1317 198C1327.23 200.655 1336.67 204.834 1343.69 213.17C1346.49 216.503 1346.17 221.143 1349.3 224.254C1356.01 230.919 1363.91 233.979 1366 244L1371 245L1366 249L1368 256L1362 258C1362.33 266.326 1358.78 274.047 1357.27 282C1356.4 286.611 1357.54 290.345 1353 293C1351.68 309.741 1343.61 320.349 1334.99 334C1332.1 338.571 1330.77 344.526 1327.35 348.675C1322.79 354.193 1316.47 358.274 1312.11 364.09C1309.64 367.388 1309.51 371.493 1307.28 374.83C1297.18 389.914 1284.58 405.075 1271.83 417.826C1263.21 426.447 1253.01 433.445 1244.59 442.375C1240.52 446.696 1238.81 452.19 1235.37 456.83C1230.23 463.758 1225.03 467.869 1225 477L1233 477L1234 486C1227.66 487.892 1229 494.473 1229 500L1234 501L1233 505L1238 505L1238 516L1253 516L1252 505L1268 500C1271.21 494.044 1277.45 491.059 1284 491L1283 488L1289 487L1289 482L1293 482L1295 473L1298 474C1298.81 468.792 1303.62 461.902 1308 459C1308.07 454.231 1313.11 447.586 1317 445L1317 440C1324.32 438.592 1325.3 430.663 1328.04 425C1335.1 410.457 1344.19 397.063 1350 382C1358.83 380.68 1364.07 372.338 1369.32 366C1379.74 353.429 1389.01 339.545 1399.9 327.424C1403.47 323.457 1402.63 313.794 1408 313L1409 308L1416 308L1415 304L1419 304L1418 301L1422 294L1430 296L1430 297L1426 297L1426 298C1430.91 298.796 1435.54 303.279 1437 308L1445 308C1445.81 318.6 1460.91 321.072 1464 331C1467.58 331.568 1468.94 332.508 1470 336L1477 337L1476 340L1482 340L1482 344L1495 349L1495 354L1498 353L1499 358L1504 363L1510 364L1509 367C1515 368.47 1523.15 375.597 1526 381L1531 385L1537 387L1536 391C1539.41 391.068 1541.54 391.335 1542 395L1547 399L1559 406L1558 408L1563 409L1563 414C1566.25 414.134 1567.05 414.898 1568 418L1573 422L1578 427L1584 427L1584 431C1589.92 431.951 1597.16 441.972 1598 431L1600 431L1600 436L1610 445C1613.1 445.948 1613.87 446.749 1614 450L1621 451L1620 455C1623.26 455.059 1624.15 455.87 1625 459L1636 464L1641 468L1641 469C1634.07 470.156 1636.11 476.956 1638 482L1644 483L1643 486L1648 491L1651 495L1664 501L1663 505C1669.18 504.581 1679.21 501.082 1672.97 492.563C1670.93 489.777 1666.48 488.815 1664 486C1668.22 487.004 1673.93 488.277 1675 483L1680 482L1680 463L1666 452L1667 450L1662 448L1663 445L1657 444L1658 440L1647 435L1647 431L1641 427C1650.98 424.821 1645.95 413.032 1637 413L1637 408L1631 405C1633.77 404.781 1638.15 404.857 1640.4 402.987C1644.34 399.71 1642.41 390.465 1638 389L1641 384L1638 381L1632 381L1632 376L1606 361L1607 358L1601 353L1596 353L1596 349L1591 349C1590.09 343.483 1584.85 340.175 1580 338L1581 335L1574 334L1575 330L1568 330L1568 326C1560.37 323.788 1553.47 317.288 1554 309C1549.27 308.067 1545.18 307.496 1545 302L1538 302L1539 298L1532 298L1527 290L1521 285L1516 280L1510 279L1511 275L1496 275C1495.78 270.229 1495.14 266.85 1490 266L1476 253L1464 247C1463.51 241.606 1459.37 240.563 1458.19 236.282C1457.01 232.049 1464.16 222.177 1468 222C1467.54 217.5 1467.82 214.284 1472 212L1481 198L1481 193C1484.47 192.423 1485.42 191.474 1486 188C1491.29 186.329 1490.99 181.888 1491 177L1494 177L1494 173L1486 176L1491 166L1496 167L1496 161L1500 162L1499 158C1503.81 155.976 1504.77 153.029 1505 148C1509.22 146.517 1508.96 143.037 1509 139L1510 139L1510 148L1520 148L1518 145L1523 144L1523 138L1526 139L1527 130L1532 129L1536 116C1526.55 114.245 1521.2 115.999 1519 126L1518 126L1513 106L1500 106L1489 124L1486 124C1485.05 127.102 1484.25 127.866 1481 128C1481.46 133.197 1475.65 139.39 1472 143L1471 138C1462.02 138.001 1458.72 138.629 1458 148L1454 148C1453.99 137.317 1449.49 138 1440 138L1433 146C1429.92 146.446 1430.77 149.237 1431 152L1427 152C1426.43 156.098 1425.75 158.954 1422 161L1418 166L1418 170C1412.94 171.521 1412.59 175.468 1411 180L1408 179L1405 193L1402 188L1399 184C1395.42 183.432 1394.06 182.492 1393 179L1388 179L1388 175L1382 174L1383 171L1375 165L1371 161L1365 160L1366 156L1362 157L1361 152L1356 147L1350 146L1351 143C1344.97 140.49 1335.81 130.251 1334 124L1330 125L1329 120L1324 115L1319 110L1314 110L1314 106L1308 105L1309 102L1303 97C1299.56 96.465 1298.07 95.6055 1298 92L1294 93L1294 88C1290.42 87.4319 1289.06 86.4918 1288 83L1284 83L1280 79L1279 74L1274 74L1274 70L1270 65L1264 64L1265 60C1261.51 59.6845 1261.11 58.1317 1260 55L1257 56C1254.19 52.7787 1244.81 52.7788 1242 56C1236.09 53.7881 1231.91 55.6328 1226.2 55.0309C1213.41 53.6844 1200.57 53.199 1188 56z"/>
<path style="fill:#010101; stroke:none;" d="M1225.33 57.6667L1225.67 58.3333L1225.33 57.6667M1216 64L1220 66L1216 64M1517 126L1517 129L1518 129L1517 126M1513 134L1514 135L1513 134M1471 145L1472 146L1471 145M1453 151L1450 152C1448.87 158.229 1436.34 165.797 1444 170C1446.09 164.471 1455.15 156.66 1453 151M1482.33 178.667L1482.67 179.333L1482.33 178.667z"/>
<path style="fill:#010d7d; stroke:none;" d="M371 181.425C352.732 183.912 335.69 189.638 320 199.425C306.414 207.9 294.748 218.995 285.428 232C223.975 317.753 295.962 440.277 401 427.715C418.749 425.592 435.674 420.052 451 410.796C526.173 365.398 529.938 253.076 458 202.721C445.608 194.048 431.689 187.715 417 184.13C402.49 180.588 385.853 179.403 371 181.425z"/>
<path style="fill:#624760; stroke:none;" d="M354 197L354 198L357 198L354 197z"/>
<path style="fill:#a16d4d; stroke:none;" d="M357.667 197.333L358.333 197.667L357.667 197.333z"/>
<path style="fill:#ff9d1a; stroke:none;" d="M295 304L302 353L303 353C303 321.524 312.84 285.38 336 263.019C344.648 254.669 380.605 231.908 383.728 258C386.252 279.094 340.773 267.12 341.518 287.001C342.137 303.516 359.546 298.185 369 294.284C372.727 292.746 378.491 290.934 380.356 296.109C382.179 301.165 377.395 306.761 373.985 309.812C365.878 317.063 340.93 319.224 341.511 333C342.291 351.503 360.449 336.765 368 333.414C372.809 331.279 378.43 331.766 378.852 338.005C379.775 351.648 366.734 362.788 356 368.688C347.28 373.481 336.173 377.996 339.986 390.171C341.136 393.842 343.035 397.026 346.044 399.468C356.812 408.203 368.312 405.419 376.251 395C379.676 390.504 384.317 381.355 391 381.762C403.325 382.511 398.748 396.722 405.228 402.57C412.222 408.882 426.822 404.42 428.566 394.999C429.627 389.273 425.51 383.666 425 378C442.294 375.41 456.636 360.299 464.459 345.576C482.388 311.83 480.279 272.569 459 241C457.818 248.933 464.571 261.099 464.961 270C466.031 294.434 456.791 320.437 442.239 340C436.118 348.229 413.142 371.701 404.028 353.985C394.423 335.315 444.357 337.043 432.539 317.228C429.726 312.511 423.933 314.365 420 316.312C410.128 321.202 393.124 333.84 391.577 313.985C389.95 293.107 432.912 300.543 432.912 280C432.912 255.422 403.488 286.951 398.743 274.98C388.939 250.244 440.183 241.354 433.181 217C428.907 202.131 407.613 201.411 398.185 211.105C393.974 215.435 390.457 225.629 383.015 225.003C369.555 223.872 376.977 198.781 361 197.5C350.945 196.694 341.334 205.775 342.559 216C342.926 219.07 347.318 224.541 345.252 227.273C342.53 230.873 333.901 232.701 330 235.44C320.432 242.156 313.164 251.031 307.22 261C302.025 269.713 299.886 280.171 298 290C297.113 294.621 297.87 300.211 295 304z"/>
<path style="fill:#624760; stroke:none;" d="M362 197L362 198L365 198L362 197M352 198L353 199L352 198z"/>
<path style="fill:#a16d4d; stroke:none;" d="M353 198L354 199L353 198M365 198L366 199L365 198z"/>
<path style="fill:#624760; stroke:none;" d="M366 198L367 199L366 198M350.667 199.333L351.333 199.667L350.667 199.333M367 199L368 200L367 199z"/>
<path style="fill:#010d7d; stroke:none;" d="M515 407L570 407L570 331C578.172 331 586.855 330.034 593.996 334.853C603.039 340.956 605.399 352.101 607.873 362C611.675 377.208 616.886 391.929 621 407L679 407C672.666 383.305 667.663 356.22 657.218 334C652.791 324.581 646.456 315.104 636 312C647.449 305.317 657.641 298.881 664.536 287C678.287 263.303 671.214 227.978 648 213.09C623.504 197.38 592.635 200 565 200C553.265 200 541.656 200.586 530 201.834C526.37 202.223 519.569 201.655 516.603 204.027C513.652 206.387 515 213.669 515 217L515 254L515 407z"/>
<path style="fill:#624760; stroke:none;" d="M349 200L350 201L349 200M368 200L369 201L368 200z"/>
<path style="fill:#010d7d; stroke:none;" d="M870 407L925 407L925 338C943.684 338 962.022 338.528 980 332.484C1024.8 317.422 1045.04 253.84 1007.96 219.174C985.537 198.208 952.383 200 924 200C910.912 200 898.002 200.442 885 201.834C881.491 202.21 873.415 201.581 871.028 204.603C868.578 207.704 870 215.264 870 219L870 258L870 407M39 201L26 407L78 407L84 256L85 256C85.7257 291.16 98.648 329.042 107.127 363C109.637 373.055 110.336 393.521 117.14 401.397C119.278 403.872 124.1 403 127 403C135.575 403.001 151.876 406.178 159.581 402.397C162.659 400.886 163.154 395.936 164 393L171.709 366C178.885 341.028 186.277 316.13 192.884 291C196.125 278.675 200.96 265.732 202 253L203 253L206 407L260 407L250 201L197 201C192.191 201 181.687 199.025 177.703 202.028C171.615 206.616 169.782 226.708 167.71 234C158.928 264.908 146.556 298.885 144 331L143 331L128.116 260L114 201L39 201z"/>
<path style="fill:#624760; stroke:none;" d="M348 201L349 202L348 201M369 201L370 202L369 201z"/>
<path style="fill:#010d7d; stroke:none;" d="M703 201L703 407L841 407L841 362L758 362L758 325L832 325L832 280L758 280L758 247L837 247L837 201L703 201M1213 201L1213 407L1263 407L1283.9 405.258L1293.18 392L1307.03 374.83L1314 363L1314 362L1268 362L1268 325L1342 325L1342 280L1268 280L1268 247L1347 247C1347 238.753 1349.52 225.377 1345.06 218.09C1334.84 201.369 1318.14 201 1301 201L1213 201z"/>
<path style="fill:#624760; stroke:none;" d="M1322 201L1322 202L1325 202L1322 201z"/>
<path style="fill:#a16d4d; stroke:none;" d="M1325.67 201.333L1326.33 201.667L1325.67 201.333z"/>
<path style="fill:#624760; stroke:none;" d="M346 202L347 203L346 202M370 202L371 203L370 202z"/>
<path style="fill:#010d7d; stroke:none;" d="M1053 202L1053 407L1187 407L1187 361L1108 361L1108 202L1053 202z"/>
<path style="fill:#624760; stroke:none;" d="M1328 202L1346 218C1343.19 212.225 1334.14 203.971 1328 202z"/>
<path style="fill:#a16d4d; stroke:none;" d="M1331 202L1346 216C1343.25 210.349 1336.67 204.643 1331 202M1341 202L1346 206L1341 202z"/>
<path style="fill:#624760; stroke:none;" d="M1344.67 202.333L1345.33 202.667L1344.67 202.333z"/>
<path style="fill:#010101; stroke:none;" d="M1431 202L1430 205L1431 205L1431 202z"/>
<path style="fill:#624760; stroke:none;" d="M345 203L346 204L345 203M371 203L372 204L371 203z"/>
<path style="fill:#a16d4d; stroke:none;" d="M345 204L346 205L345 204M371 204L372 205L371 204z"/>
<path style="fill:#624760; stroke:none;" d="M409 204L410 205L409 204z"/>
<path style="fill:#a16d4d; stroke:none;" d="M410 204L411 205L410 204M417 204L418 205L417 204z"/>
<path style="fill:#624760; stroke:none;" d="M418 204L419 205L418 204M344 205L345 206L344 205M372 205L373 206L372 205M405 205L406 206L405 205z"/>
<path style="fill:#a16d4d; stroke:none;" d="M406 205L406 206L409 206L406 205M419 205L419 206L423 206L419 205M344 206L345 207L344 206M372 206L373 207L372 206z"/>
<path style="fill:#624760; stroke:none;" d="M403 206L404 207L403 206z"/>
<path style="fill:#a16d4d; stroke:none;" d="M404 206L405 207L404 206M423.667 206.333L424.333 206.667L423.667 206.333z"/>
<path style="fill:#624760; stroke:none;" d="M343 207L344 208L343 207M373 207L375 217L376 217L373 207M401 207L402 208L401 207z"/>
<path style="fill:#a16d4d; stroke:none;" d="M402 207L403 208L402 207M425.667 207.333L426.333 207.667L425.667 207.333M343 208L344 209L343 208z"/>
<path style="fill:#624760; stroke:none;" d="M400 208L401 209L400 208z"/>
<path style="fill:#a16d4d; stroke:none;" d="M427 208L428 209L427 208z"/>
<path style="fill:#624760; stroke:none;" d="M342 209L343 210L342 209M398 209L399 210L398 209z"/>
<path style="fill:#a16d4d; stroke:none;" d="M399 209L400 210L399 209M428 209L432 213L428 209z"/>
<path style="fill:#624760; stroke:none;" d="M429 209L430 210L429 209z"/>
<path style="fill:#a16d4d; stroke:none;" d="M342 210L342 213L343 213L342 210M398 210L399 211L398 210z"/>
<path style="fill:#624760; stroke:none;" d="M430 210L431 211L430 210z"/>
<path style="fill:#a16d4d; stroke:none;" d="M373 211L374 212L373 211z"/>
<path style="fill:#624760; stroke:none;" d="M397 211L398 212L397 211M431 211L432 212L431 211M396 212L397 213L396 212M341 213L342 214L341 213M432 213L433 216L434 216L432 213z"/>
<path style="fill:#a16d4d; stroke:none;" d="M341 214L342 215L341 214z"/>
<path style="fill:#624760; stroke:none;" d="M395 214L396 215L395 214z"/>
<path style="fill:#a16d4d; stroke:none;" d="M432 214L433 215L432 214z"/>
<path style="fill:#624760; stroke:none;" d="M341 215L342 216L341 215z"/>
<path style="fill:#a16d4d; stroke:none;" d="M374 215L375 216L374 215z"/>
<path style="fill:#624760; stroke:none;" d="M394 215L395 216L394 215z"/>
<path style="fill:#a16d4d; stroke:none;" d="M342 216L342 220L343 220L342 216M433.333 216.667L433.667 217.333L433.333 216.667M375.333 217.667L375.667 218.333L375.333 217.667z"/>
<path style="fill:#624760; stroke:none;" d="M393 217L394 218L393 217M434.333 217.667L434.667 218.333L434.333 217.667M376.333 218.667L376.667 219.333L376.333 218.667M392 219L393 220L392 219z"/>
<path style="fill:#a16d4d; stroke:none;" d="M434 219L434 222L435 222L434 219M1346.33 219.667L1346.67 220.333L1346.33 219.667M343.333 220.667L343.667 221.333L343.333 220.667M376 220L377 221L376 220z"/>
<path style="fill:#624760; stroke:none;" d="M391 220L392 221L391 220z"/>
<path style="fill:#a16d4d; stroke:none;" d="M377 221L378 222L377 221z"/>
<path style="fill:#624760; stroke:none;" d="M390 221L391 222L390 221M1346 221L1347 222L1346 221z"/>
<path style="fill:#a16d4d; stroke:none;" d="M344 222L345 223L344 222M378.333 222.667L378.667 223.333L378.333 222.667z"/>
<path style="fill:#624760; stroke:none;" d="M389 222L390 223L389 222z"/>
<path style="fill:#a16d4d; stroke:none;" d="M433 222L431 228L432 228L433 222M345 223L346 224L345 223z"/>
<path style="fill:#624760; stroke:none;" d="M388 223L389 224L388 223z"/>
<path style="fill:#010101; stroke:none;" d="M1347 223L1347 247L1268 247L1268 280L1342 280L1342 324L1343 324C1348.36 313.91 1352.5 304.624 1353 293C1357.8 291.311 1356.46 287.262 1357.27 283C1358.83 274.797 1362.77 266.568 1362 258L1368 256L1366 249L1371 245L1366 244C1364.77 233.963 1355.67 227.123 1347 223z"/>
<path style="fill:#a16d4d; stroke:none;" d="M346 224L347 225L346 224M380 224L381 225L380 224z"/>
<path style="fill:#624760; stroke:none;" d="M384 224L385 225L384 224z"/>
<path style="fill:#a16d4d; stroke:none;" d="M385 224L385 225L388 225L385 224z"/>
<path style="fill:#624760; stroke:none;" d="M346 225L341 228L341 229L346 225z"/>
<path style="fill:#a16d4d; stroke:none;" d="M381 225L381 226L384 226L381 225z"/>
<path style="fill:#624760; stroke:none;" d="M433 225L434 226L433 225z"/>
<path style="fill:#a16d4d; stroke:none;" d="M346 227L347 228L346 227z"/>
<path style="fill:#624760; stroke:none;" d="M432 227L433 228L432 227z"/>
<path style="fill:#a16d4d; stroke:none;" d="M344 228L345 229L344 228z"/>
<path style="fill:#624760; stroke:none;" d="M431.333 228.667L431.667 229.333L431.333 228.667M339.667 229.333L340.333 229.667L339.667 229.333M337.667 230.333L338.333 230.667L337.667 230.333M430.333 230.667L430.667 231.333L430.333 230.667M335.667 231.333L336.333 231.667L335.667 231.333M334 232L335 233L334 232M429 232L430 233L429 232M332 233L333 234L332 233M428 233L429 234L428 233M331 234L332 235L331 234M427 234L428 235L427 234M329 235L330 236L329 235M426 235L427 236L426 235M328 236L329 237L328 236M425 236L426 237L425 236M326 237L327 238L326 237z"/>
<path style="fill:#a16d4d; stroke:none;" d="M327 237L328 238L327 237z"/>
<path style="fill:#624760; stroke:none;" d="M424 237L425 238L424 237M325 238L326 239L325 238M423 238L424 239L423 238M324 239L325 240L324 239M422 239L423 240L422 239z"/>
<path style="fill:#a16d4d; stroke:none;" d="M457 239L457 241L459 241L457 239z"/>
<path style="fill:#624760; stroke:none;" d="M323 240L324 241L323 240M421 240L422 241L421 240M322 241L323 242L322 241M420 241L421 242L420 241z"/>
<path style="fill:#a16d4d; stroke:none;" d="M459 241L460 242L459 241z"/>
<path style="fill:#010101; stroke:none;" d="M570 242L570 291C581.783 291 596.012 291.509 605.985 284.211C618.531 275.031 618.471 253.387 604.999 244.995C595.173 238.873 580.877 240.625 570 242z"/>
<path style="fill:#624760; stroke:none;" d="M321 242L322 243L321 242M419 242L420 243L419 242M460 242L461 243L460 242z"/>
<path style="fill:#010101; stroke:none;" d="M925 243L925 295C936.866 295.033 949.652 296.748 960 289.362C973.717 279.571 975.848 256.803 960.999 246.853C951.203 240.289 936.1 240.939 925 243z"/>
<path style="fill:#624760; stroke:none;" d="M320 243L321 244L320 243M418 243L419 244L418 243z"/>
<path style="fill:#a16d4d; stroke:none;" d="M458 243L459 244L458 243M460 243L461 244L460 243z"/>
<path style="fill:#624760; stroke:none;" d="M319 244L320 245L319 244z"/>
<path style="fill:#a16d4d; stroke:none;" d="M416 244L417 245L416 244z"/>
<path style="fill:#624760; stroke:none;" d="M417 244L418 245L417 244z"/>
<path style="fill:#a16d4d; stroke:none;" d="M461 244L462 245L461 244M318 245L319 246L318 245M414 245L405 255L414 245z"/>
<path style="fill:#624760; stroke:none;" d="M415 245L416 246L415 245z"/>
<path style="fill:#a16d4d; stroke:none;" d="M459 245L460 246L459 245z"/>
<path style="fill:#624760; stroke:none;" d="M462 245L463 246L462 245M317 246L318 247L317 246z"/>
<path style="fill:#a16d4d; stroke:none;" d="M357 248L357 249L374 247L357 248z"/>
<path style="fill:#624760; stroke:none;" d="M414 246L415 247L414 246z"/>
<path style="fill:#a16d4d; stroke:none;" d="M460 246L460 249L461 249L460 246M462 246L463 247L462 246M316 247L317 248L316 247z"/>
<path style="fill:#624760; stroke:none;" d="M363 247L364 248L363 247M374 247L374 248L378 249L378 248L374 247z"/>
<path style="fill:#a16d4d; stroke:none;" d="M375.667 247.333L376.333 247.667L375.667 247.333z"/>
<path style="fill:#624760; stroke:none;" d="M413 247L414 248L413 247z"/>
<path style="fill:#a16d4d; stroke:none;" d="M463 247L464 248L463 247M315 248L316 249L315 248z"/>
<path style="fill:#624760; stroke:none;" d="M360.667 248.333L361.333 248.667L360.667 248.333M412 248L413 249L412 248M464 248L465 249L464 248z"/>
<path style="fill:#a16d4d; stroke:none;" d="M314 249L315 250L314 249M355 249L356 250L355 249z"/>
<path style="fill:#624760; stroke:none;" d="M356 249L356 250L359 250L356 249M378 249L379 250L378 249M411 249L412 250L411 249z"/>
<path style="fill:#a16d4d; stroke:none;" d="M461 249L462 257L463 257L461 249M464 249L465 250L464 249z"/>
<path style="fill:#624760; stroke:none;" d="M313 250L314 251L313 250z"/>
<path style="fill:#a16d4d; stroke:none;" d="M353 250L354 251L353 250z"/>
<path style="fill:#624760; stroke:none;" d="M354.667 250.333L355.333 250.667L354.667 250.333M379 250L380 251L379 250M410 250L411 251L410 250M465 250L466 251L465 250z"/>
<path style="fill:#a16d4d; stroke:none;" d="M313 251L314 252L313 251M351 251L352 252L351 251z"/>
<path style="fill:#624760; stroke:none;" d="M352.667 251.333L353.333 251.667L352.667 251.333M380 251L381 252L380 251M409 251L410 252L409 251z"/>
<path style="fill:#a16d4d; stroke:none;" d="M465 251L466 252L465 251z"/>
<path style="fill:#624760; stroke:none;" d="M312 252L313 253L312 252z"/>
<path style="fill:#a16d4d; stroke:none;" d="M349 252L347 253L347 254L349 252z"/>
<path style="fill:#624760; stroke:none;" d="M350.667 252.333L351.333 252.667L350.667 252.333M381 252L382 253L381 252M408 252L409 253L408 252M466 252L467 253L466 252M311 253L312 254L311 253M349 253L350 254L349 253z"/>
<path style="fill:#a16d4d; stroke:none;" d="M382 253L383 254L382 253z"/>
<path style="fill:#624760; stroke:none;" d="M407 253L408 254L407 253M461 253L462 254L461 253z"/>
<path style="fill:#a16d4d; stroke:none;" d="M466 253L467 254L466 253M311 254L312 255L311 254z"/>
<path style="fill:#624760; stroke:none;" d="M347 254L348 255L347 254M382 254L383 255L382 254M406 254L407 255L406 254M467 254L468 255L467 254M310 255L311 256L310 255z"/>
<path style="fill:#a16d4d; stroke:none;" d="M344.667 255.333L345.333 255.667L344.667 255.333z"/>
<path style="fill:#624760; stroke:none;" d="M346 255L347 256L346 255z"/>
<path style="fill:#a16d4d; stroke:none;" d="M383 255L383 263L384 263L383 255z"/>
<path style="fill:#624760; stroke:none;" d="M405 255L406 256L405 255z"/>
<path style="fill:#a16d4d; stroke:none;" d="M467 255L468 256L467 255z"/>
<path style="fill:#624760; stroke:none;" d="M309 256L310 257L309 256M344 256L345 257L344 256M404 256L405 257L404 256M468 256L469 257L468 256z"/>
<path style="fill:#a16d4d; stroke:none;" d="M309 257L310 258L309 257z"/>
<path style="fill:#624760; stroke:none;" d="M343 257L344 258L343 257z"/>
<path style="fill:#a16d4d; stroke:none;" d="M402.333 257.667L402.667 258.333L402.333 257.667z"/>
<path style="fill:#624760; stroke:none;" d="M403 257L404 258L403 257M462 257L463 258L462 257z"/>
<path style="fill:#a16d4d; stroke:none;" d="M468 257L469 258L468 257z"/>
<path style="fill:#624760; stroke:none;" d="M308 258L309 259L308 258z"/>
<path style="fill:#a16d4d; stroke:none;" d="M327 273L328 273L342 259C336.188 258.877 329.284 268.102 327 273z"/>
<path style="fill:#624760; stroke:none;" d="M342 258L343 259L342 258z"/>
<path style="fill:#a16d4d; stroke:none;" d="M463 258L463 264L464 264L463 258z"/>
<path style="fill:#624760; stroke:none;" d="M469 258L470 259L469 258z"/>
<path style="fill:#a16d4d; stroke:none;" d="M308 259L309 260L308 259z"/>
<path style="fill:#624760; stroke:none;" d="M340 259L341 260L340 259M402 259L403 260L402 259z"/>
<path style="fill:#a16d4d; stroke:none;" d="M469 259L470 260L469 259z"/>
<path style="fill:#624760; stroke:none;" d="M307 260L308 261L307 260M339 260L340 261L339 260z"/>
<path style="fill:#a16d4d; stroke:none;" d="M400 260L401 261L400 260z"/>
<path style="fill:#624760; stroke:none;" d="M401 260L402 261L401 260M470 260L474 274L475 274L470 260M306 261L307 262L306 261M338 261L339 262L338 261M400 261L400 264L401 264L400 261z"/>
<path style="fill:#a16d4d; stroke:none;" d="M470 261L471 262L470 261z"/>
<path style="fill:#624760; stroke:none;" d="M337 262L338 263L337 262M305 263L306 264L305 263M336 263L337 264L336 263M382 263L378 268L382 263M304 264L305 265L304 264M335 264L336 265L335 264z"/>
<path style="fill:#a16d4d; stroke:none;" d="M382 264L383 265L382 264z"/>
<path style="fill:#624760; stroke:none;" d="M399 264L399 267L400 267L399 264M463 264L464 265L463 264z"/>
<path style="fill:#a16d4d; stroke:none;" d="M471 264L472 265L471 264z"/>
<path style="fill:#624760; stroke:none;" d="M334 265L335 266L334 265z"/>
<path style="fill:#a16d4d; stroke:none;" d="M381 265L382 266L381 265M464 265L465 266L464 265z"/>
<path style="fill:#624760; stroke:none;" d="M304 266L301 274L302 274L304 266M333 266L334 267L333 266z"/>
<path style="fill:#a16d4d; stroke:none;" d="M380 266L381 267L380 266z"/>
<path style="fill:#624760; stroke:none;" d="M464 266L464 283L465 283L464 266z"/>
<path style="fill:#a16d4d; stroke:none;" d="M304 267L305 268L304 267z"/>
<path style="fill:#624760; stroke:none;" d="M332 267L333 268L332 267z"/>
<path style="fill:#a16d4d; stroke:none;" d="M379 267L380 268L379 267z"/>
<path style="fill:#624760; stroke:none;" d="M398 267L398 276L399 276L398 267z"/>
<path style="fill:#a16d4d; stroke:none;" d="M472 267L473 268L472 267z"/>
<path style="fill:#624760; stroke:none;" d="M331 268L332 269L331 268M375 268L376 269L375 268z"/>
<path style="fill:#a16d4d; stroke:none;" d="M376.667 268.333L377.333 268.667L376.667 268.333M303 269L304 270L303 269z"/>
<path style="fill:#624760; stroke:none;" d="M330 269L331 270L330 269M373 269L374 270L373 269z"/>
<path style="fill:#a16d4d; stroke:none;" d="M374 269L375 270L374 269z"/>
<path style="fill:#624760; stroke:none;" d="M420 269L421 270L420 269z"/>
<path style="fill:#a16d4d; stroke:none;" d="M421 269L421 270L427 270L421 269z"/>
<path style="fill:#624760; stroke:none;" d="M329 270L330 271L329 270M370 270L371 271L370 270z"/>
<path style="fill:#a16d4d; stroke:none;" d="M371.667 270.333L372.333 270.667L371.667 270.333z"/>
<path style="fill:#624760; stroke:none;" d="M418 270L419 271L418 270z"/>
<path style="fill:#a16d4d; stroke:none;" d="M419.667 270.333L420.333 270.667L419.667 270.333M427.667 270.333L428.333 270.667L427.667 270.333M473 270L474 271L473 270M302 271L303 272L302 271z"/>
<path style="fill:#624760; stroke:none;" d="M328 271L329 272L328 271M366 271L367 272L366 271z"/>
<path style="fill:#a16d4d; stroke:none;" d="M367 271L367 272L370 272L367 271z"/>
<path style="fill:#624760; stroke:none;" d="M416 271L417 272L416 271z"/>
<path style="fill:#a16d4d; stroke:none;" d="M417 271L418 272L417 271M429 271L430 272L429 271z"/>
<path style="fill:#624760; stroke:none;" d="M362 272L362 273L365 273L362 272z"/>
<path style="fill:#a16d4d; stroke:none;" d="M365 272L366 273L365 272z"/>
<path style="fill:#624760; stroke:none;" d="M414 272L415 273L414 272z"/>
<path style="fill:#a16d4d; stroke:none;" d="M415 272L416 273L415 272M430 272L431 273L430 272z"/>
<path style="fill:#624760; stroke:none;" d="M327 273L328 274L327 273M358 273L358 274L361 274L358 273z"/>
<path style="fill:#a16d4d; stroke:none;" d="M361 273L362 274L361 273z"/>
<path style="fill:#624760; stroke:none;" d="M413 273L414 274L413 273z"/>
<path style="fill:#a16d4d; stroke:none;" d="M431 273L432 274L431 273z"/>
<path style="fill:#624760; stroke:none;" d="M432.333 273.667L432.667 274.333L432.333 273.667z"/>
<path style="fill:#a16d4d; stroke:none;" d="M301 274L302 275L301 274z"/>
<path style="fill:#624760; stroke:none;" d="M326 274L327 275L326 274M353 274L353 275L357 275L353 274z"/>
<path style="fill:#a16d4d; stroke:none;" d="M357 274L358 275L357 274z"/>
<path style="fill:#624760; stroke:none;" d="M411.667 274.333L412.333 274.667L411.667 274.333z"/>
<path style="fill:#a16d4d; stroke:none;" d="M474 274L475 275L474 274z"/>
<path style="fill:#624760; stroke:none;" d="M300 275L300 278L301 278L300 275M325 275L326 276L325 275M352 275L353 276L352 275M410 275L411 276L410 275z"/>
<path style="fill:#a16d4d; stroke:none;" d="M432 275L433 276L432 275z"/>
<path style="fill:#624760; stroke:none;" d="M475 275L476 282L477 282L475 275M324.333 276.667L324.667 277.333L324.333 276.667M348 276L348 277L351 277L348 276M399.333 276.667L399.667 277.333L399.333 276.667M409 276L410 277L409 276z"/>
<path style="fill:#a16d4d; stroke:none;" d="M433 276L433 283L434 283L433 276z"/>
<path style="fill:#624760; stroke:none;" d="M347 277L348 278L347 277M407 277L408 278L407 277z"/>
<path style="fill:#a16d4d; stroke:none;" d="M300 278L301 279L300 278z"/>
<path style="fill:#624760; stroke:none;" d="M323 278L324 279L323 278M346 278L347 279L346 278M400 278L401 279L400 278M405 278L406 279L405 278z"/>
<path style="fill:#a16d4d; stroke:none;" d="M406 278L407 279L406 278z"/>
<path style="fill:#624760; stroke:none;" d="M299 279L300 280L299 279M322 279L321 282L322 279z"/>
<path style="fill:#a16d4d; stroke:none;" d="M344.667 279.333L345.333 279.667L344.667 279.333M401 279L401 280L405 280L401 279M299.333 280.667L299.667 281.333L299.333 280.667M321 280L322 281L321 280z"/>
<path style="fill:#624760; stroke:none;" d="M343 280L344 281L343 280M342 281L343 282L342 281z"/>
<path style="fill:#a16d4d; stroke:none;" d="M475 281L476 282L475 281z"/>
<path style="fill:#624760; stroke:none;" d="M298 282L299 283L298 282z"/>
<path style="fill:#a16d4d; stroke:none;" d="M320 282L321 283L320 282z"/>
<path style="fill:#624760; stroke:none;" d="M341 282L342 283L341 282z"/>
<path style="fill:#a16d4d; stroke:none;" d="M476 282L477 283L476 282M298 283L297 293L298 293L298 283z"/>
<path style="fill:#624760; stroke:none;" d="M320 283L321 284L320 283z"/>
<path style="fill:#a16d4d; stroke:none;" d="M341.333 283.667L341.667 284.333L341.333 283.667z"/>
<path style="fill:#624760; stroke:none;" d="M433 283L429 290L433 283z"/>
<path style="fill:#a16d4d; stroke:none;" d="M464 283L463 292L464 292L464 283z"/>
<path style="fill:#624760; stroke:none;" d="M476 283L477 290L478 290L476 283z"/>
<path style="fill:#a16d4d; stroke:none;" d="M319 284L320 285L319 284M432 284L433 285L432 284z"/>
<path style="fill:#624760; stroke:none;" d="M463 284L464 285L463 284M319 285L320 286L319 285M340 285L341 286L340 285z"/>
<path style="fill:#a16d4d; stroke:none;" d="M318 286L319 287L318 286M340 286L341 287L340 286M431 286L432 287L431 286z"/>
<path style="fill:#624760; stroke:none;" d="M297 287L298 288L297 287M318 287L319 288L318 287M340 287L341 288L340 287z"/>
<path style="fill:#a16d4d; stroke:none;" d="M430 287L431 288L430 287M317 288L318 289L317 288M341.333 288.667L341.667 289.333L341.333 288.667M429 288L430 289L429 288z"/>
<path style="fill:#624760; stroke:none;" d="M317 289L318 290L317 289z"/>
<path style="fill:#a16d4d; stroke:none;" d="M418 294L418 295L429 290L418 294M476 289L477 290L476 289M316 290L317 291L316 290z"/>
<path style="fill:#624760; stroke:none;" d="M341 290L342 291L341 290M427 290L428 291L427 290z"/>
<path style="fill:#a16d4d; stroke:none;" d="M477 290L476 304L477 304L477 290z"/>
<path style="fill:#624760; stroke:none;" d="M316 291L317 292L316 291z"/>
<path style="fill:#a16d4d; stroke:none;" d="M342 291L343 292L342 291z"/>
<path style="fill:#624760; stroke:none;" d="M426 291L427 292L426 291M296.333 292.667L296.667 293.333L296.333 292.667z"/>
<path style="fill:#a16d4d; stroke:none;" d="M315.333 292.667L315.667 293.333L315.333 292.667z"/>
<path style="fill:#624760; stroke:none;" d="M342 292L343 293L342 292z"/>
<path style="fill:#a16d4d; stroke:none;" d="M373 292L373 293L378 293L373 292z"/>
<path style="fill:#624760; stroke:none;" d="M424 292L425 293L424 292M462 292L463 293L462 292z"/>
<path style="fill:#a16d4d; stroke:none;" d="M343 293L344 294L343 293M370.667 293.333L371.333 293.667L370.667 293.333z"/>
<path style="fill:#624760; stroke:none;" d="M372 293L372 294L377 294L372 293M378 293L380 300L381 300L378 293z"/>
<path style="fill:#a16d4d; stroke:none;" d="M379 293L380 294L379 293z"/>
<path style="fill:#624760; stroke:none;" d="M422 293L423 294L422 293z"/>
<path style="fill:#a16d4d; stroke:none;" d="M462 293L462 297L463 297L462 293M296 294L296 304L297 304L296 294z"/>
<path style="fill:#624760; stroke:none;" d="M315 294L314 297L315 294M343 294L344 295L343 294z"/>
<path style="fill:#a16d4d; stroke:none;" d="M368 294L369 295L368 294z"/>
<path style="fill:#624760; stroke:none;" d="M369 294L369 295L372 295L369 294z"/>
<path style="fill:#a16d4d; stroke:none;" d="M380 294L381 295L380 294z"/>
<path style="fill:#624760; stroke:none;" d="M420 294L421 295L420 294z"/>
<path style="fill:#a16d4d; stroke:none;" d="M314 295L315 296L314 295M344 295L345 296L344 295M366 295L367 296L366 295z"/>
<path style="fill:#624760; stroke:none;" d="M367.667 295.333L368.333 295.667L367.667 295.333z"/>
<path style="fill:#a16d4d; stroke:none;" d="M415 295L413 296L413 297L415 295z"/>
<path style="fill:#624760; stroke:none;" d="M416 295L416 296L419 296L416 295z"/>
<path style="fill:#a16d4d; stroke:none;" d="M345 296L346 297L345 296M363 296L364 297L363 296z"/>
<path style="fill:#624760; stroke:none;" d="M364 296L364 297L367 297L364 296M415 296L416 297L415 296z"/>
<path style="fill:#a16d4d; stroke:none;" d="M313.333 297.667L313.667 298.333L313.333 297.667M346 297L347 298L346 297M360 297L361 298L360 297z"/>
<path style="fill:#624760; stroke:none;" d="M361 297L361 298L364 298L361 297z"/>
<path style="fill:#a16d4d; stroke:none;" d="M410 297L411 298L410 297z"/>
<path style="fill:#624760; stroke:none;" d="M411 297L411 298L414 298L411 297M461 297L462 298L461 297M347 298L348 299L347 298z"/>
<path style="fill:#a16d4d; stroke:none;" d="M348 298L349 299L348 298M357 298L358 299L357 298z"/>
<path style="fill:#624760; stroke:none;" d="M358 298L358 299L361 299L358 298z"/>
<path style="fill:#a16d4d; stroke:none;" d="M407 298L408 299L407 298z"/>
<path style="fill:#624760; stroke:none;" d="M408 298L408 299L411 299L408 298z"/>
<path style="fill:#a16d4d; stroke:none;" d="M461 298L461 301L462 301L461 298z"/>
<path style="fill:#624760; stroke:none;" d="M313 299L311 307L312 307L313 299M349 299L349 300L357 300L349 299z"/>
<path style="fill:#a16d4d; stroke:none;" d="M405 299L406 300L405 299z"/>
<path style="fill:#624760; stroke:none;" d="M406.667 299.333L407.333 299.667L406.667 299.333z"/>
<path style="fill:#a16d4d; stroke:none;" d="M312 300L313 301L312 300M380 300L381 301L380 300M402 300L403 301L402 300z"/>
<path style="fill:#624760; stroke:none;" d="M403 300L403 301L406 301L403 300M379.333 301.667L379.667 302.333L379.333 301.667z"/>
<path style="fill:#a16d4d; stroke:none;" d="M400 301L398 302L398 303L400 301z"/>
<path style="fill:#624760; stroke:none;" d="M401.667 301.333L402.333 301.667L401.667 301.333M460 301L461 302L460 301M400 302L401 303L400 302z"/>
<path style="fill:#a16d4d; stroke:none;" d="M460.333 302.667L460.667 303.333L460.333 302.667z"/>
<path style="fill:#624760; stroke:none;" d="M294.667 303.333L295.333 303.667L294.667 303.333z"/>
<path style="fill:#a16d4d; stroke:none;" d="M311 303L312 304L311 303M379 303L380 304L379 303M397 303L398 304L397 303z"/>
<path style="fill:#624760; stroke:none;" d="M477 303L478 304L477 303z"/>
<path style="fill:#a16d4d; stroke:none;" d="M294 304L295 320L296 320L294 304z"/>
<path style="fill:#624760; stroke:none;" d="M378 304L379 305L378 304z"/>
<path style="fill:#a16d4d; stroke:none;" d="M395.667 304.333L396.333 304.667L395.667 304.333z"/>
<path style="fill:#624760; stroke:none;" d="M459 304L460 305L459 304M476 304L476 313L477 313L476 304z"/>
<path style="fill:#a16d4d; stroke:none;" d="M378 305L379 306L378 305M394 305L395 306L394 305M377 306L378 307L377 306M459 306L460 307L459 306z"/>
<path style="fill:#624760; stroke:none;" d="M310 307L310 310L311 310L310 307z"/>
<path style="fill:#a16d4d; stroke:none;" d="M376 307L377 308L376 307M393 307L394 308L393 307M375 308L376 309L375 308M374 309L375 310L374 309M392 309L393 310L392 309z"/>
<path style="fill:#624760; stroke:none;" d="M309 310L309 313L310 313L309 310z"/>
<path style="fill:#a16d4d; stroke:none;" d="M373 310L374 311L373 310M391 310L391 316L392 316L391 310M371.667 311.333L372.333 311.667L371.667 311.333M457 311L458 312L457 311M370 312L371 313L370 312M367 313L367 314L370 314L367 313M424 313L424 314L432 315L424 313z"/>
<path style="fill:#624760; stroke:none;" d="M430 313L431 314L430 313z"/>
<path style="fill:#a16d4d; stroke:none;" d="M475 313L476 314L475 313M308 314L309 315L308 314z"/>
<path style="fill:#624760; stroke:none;" d="M365 314L366 315L365 314z"/>
<path style="fill:#a16d4d; stroke:none;" d="M366 314L367 315L366 314z"/>
<path style="fill:#624760; stroke:none;" d="M421 314L422 315L421 314z"/>
<path style="fill:#a16d4d; stroke:none;" d="M422.667 314.333L423.333 314.667L422.667 314.333z"/>
<path style="fill:#624760; stroke:none;" d="M432 314L434 317L432 314z"/>
<path style="fill:#a16d4d; stroke:none;" d="M456 314L457 315L456 314z"/>
<path style="fill:#624760; stroke:none;" d="M475 314L472 330L473 330L475 314M363 315L364 316L363 315z"/>
<path style="fill:#a16d4d; stroke:none;" d="M364 315L365 316L364 315z"/>
<path style="fill:#624760; stroke:none;" d="M419 315L414 318L414 319L420 316L419 315z"/>
<path style="fill:#a16d4d; stroke:none;" d="M420.667 315.333L421.333 315.667L420.667 315.333z"/>
<path style="fill:#624760; stroke:none;" d="M455 315L456 316L455 315M347 322L347 323L361 317L347 322z"/>
<path style="fill:#a16d4d; stroke:none;" d="M361.667 316.333L362.333 316.667L361.667 316.333z"/>
<path style="fill:#624760; stroke:none;" d="M392 316L393 317L392 316z"/>
<path style="fill:#a16d4d; stroke:none;" d="M419 316L420 317L419 316M432 316L433 317L432 316M455 316L456 317L455 316M359 317L360 318L359 317M417 317L418 318L417 317M433 317L434 322L435 322L433 317z"/>
<path style="fill:#624760; stroke:none;" d="M454 317L455 318L454 317z"/>
<path style="fill:#a16d4d; stroke:none;" d="M307 318L308 319L307 318M356 318L357 319L356 318M416 318L417 319L416 318z"/>
<path style="fill:#624760; stroke:none;" d="M434 318L435 319L434 318z"/>
<path style="fill:#a16d4d; stroke:none;" d="M454 318L455 319L454 318M474 318L475 319L474 318z"/>
<path style="fill:#624760; stroke:none;" d="M294 319L295 320L294 319z"/>
<path style="fill:#a16d4d; stroke:none;" d="M354 319L355 320L354 319M392 319L393 320L392 319z"/>
<path style="fill:#624760; stroke:none;" d="M413 319L414 320L413 319M453 319L454 320L453 319z"/>
<path style="fill:#a16d4d; stroke:none;" d="M296 320L297 335L298 335L296 320M352 320L353 321L352 320z"/>
<path style="fill:#624760; stroke:none;" d="M393 320L394 321L393 320M411 320L412 321L411 320z"/>
<path style="fill:#a16d4d; stroke:none;" d="M453 320L454 321L453 320M350 321L351 322L350 321M393 321L394 322L393 321z"/>
<path style="fill:#624760; stroke:none;" d="M402 324L402 325L411 322L402 324M452 321L453 322L452 321z"/>
<path style="fill:#a16d4d; stroke:none;" d="M306 322L307 323L306 322M348 322L349 323L348 322z"/>
<path style="fill:#624760; stroke:none;" d="M394 322L397 325L394 322z"/>
<path style="fill:#a16d4d; stroke:none;" d="M409 322L410 323L409 322z"/>
<path style="fill:#624760; stroke:none;" d="M434 322L435 323L434 322z"/>
<path style="fill:#a16d4d; stroke:none;" d="M452 322L453 323L452 322M473 322L474 323L473 322z"/>
<path style="fill:#624760; stroke:none;" d="M306 323L307 324L306 323M345 323L346 324L345 323z"/>
<path style="fill:#a16d4d; stroke:none;" d="M346 323L347 324L346 323M394 323L395 324L394 323M407 323L408 324L407 323M433.333 323.667L433.667 324.333L433.333 323.667z"/>
<path style="fill:#624760; stroke:none;" d="M451 323L452 324L451 323M344 324L345 325L344 324z"/>
<path style="fill:#a16d4d; stroke:none;" d="M395 324L396 325L395 324M404.667 324.333L405.333 324.667L404.667 324.333M451 324L452 325L451 324z"/>
<path style="fill:#624760; stroke:none;" d="M343 325L344 326L343 325z"/>
<path style="fill:#a16d4d; stroke:none;" d="M396 325L396 326L403 326L396 325z"/>
<path style="fill:#624760; stroke:none;" d="M433 325L432 328L433 325M450 325L451 326L450 325z"/>
<path style="fill:#010101; stroke:none;" d="M1268 325L1268 362C1281.08 362 1301.79 365.975 1314 361.258C1326.18 356.547 1336.36 335.883 1342 325L1268 325z"/>
<path style="fill:#624760; stroke:none;" d="M342 326L343 327L342 326z"/>
<path style="fill:#a16d4d; stroke:none;" d="M432 326L433 327L432 326M450 326L451 327L450 326M472 326L473 327L472 326M342 327L343 328L342 327z"/>
<path style="fill:#624760; stroke:none;" d="M449 327L450 328L449 327M341 328L342 329L341 328z"/>
<path style="fill:#a16d4d; stroke:none;" d="M431 328L432 329L431 328M449 328L450 329L449 328z"/>
<path style="fill:#624760; stroke:none;" d="M296 329L297 330L296 329M305 329L306 330L305 329z"/>
<path style="fill:#a16d4d; stroke:none;" d="M341.333 329.667L341.667 330.333L341.333 329.667M430 329L431 330L430 329z"/>
<path style="fill:#624760; stroke:none;" d="M448 329L449 330L448 329z"/>
<path style="fill:#a16d4d; stroke:none;" d="M471.333 329.667L471.667 330.333L471.333 329.667M304 330L304 338L305 338L304 330M429 330L430 331L429 330z"/>
<path style="fill:#624760; stroke:none;" d="M447 330L448 331L447 330M340 331L341 332L340 331z"/>
<path style="fill:#a16d4d; stroke:none;" d="M428 331L429 332L428 331M447 331L448 332L447 331z"/>
<path style="fill:#624760; stroke:none;" d="M471.333 331.667L471.667 332.333L471.333 331.667z"/>
<path style="fill:#a16d4d; stroke:none;" d="M340 332L341 333L340 332M369 332L369 333L376 333L369 332z"/>
<path style="fill:#624760; stroke:none;" d="M376 332L378 334L376 332z"/>
<path style="fill:#a16d4d; stroke:none;" d="M377 332L378 333L377 332M427 332L428 333L427 332z"/>
<path style="fill:#624760; stroke:none;" d="M446 332L447 333L446 332z"/>
<path style="fill:#a16d4d; stroke:none;" d="M470.333 332.667L470.667 333.333L470.333 332.667z"/>
<path style="fill:#624760; stroke:none;" d="M340 333L341 334L340 333z"/>
<path style="fill:#a16d4d; stroke:none;" d="M367 333L368 334L367 333z"/>
<path style="fill:#624760; stroke:none;" d="M368.667 333.333L369.333 333.667L368.667 333.333z"/>
<path style="fill:#a16d4d; stroke:none;" d="M425.667 333.333L426.333 333.667L425.667 333.333M446 333L447 334L446 333M341.333 334.667L341.667 335.333L341.333 334.667M365 334L366 335L365 334z"/>
<path style="fill:#624760; stroke:none;" d="M366.667 334.333L367.333 334.667L366.667 334.333z"/>
<path style="fill:#a16d4d; stroke:none;" d="M378 334L379 335L378 334M423.667 334.333L424.333 334.667L423.667 334.333z"/>
<path style="fill:#624760; stroke:none;" d="M445 334L444 336L445 334M470 334L471 335L470 334M297 335L298 336L297 335z"/>
<path style="fill:#a16d4d; stroke:none;" d="M364 335L365 336L364 335z"/>
<path style="fill:#624760; stroke:none;" d="M378 335L376 349L377 349L378 335z"/>
<path style="fill:#a16d4d; stroke:none;" d="M421.667 335.333L422.333 335.667L421.667 335.333M445 335L446 336L445 335M469 335L470 336L469 335M298 336L298 341L299 341L298 336z"/>
<path style="fill:#624760; stroke:none;" d="M341 336L342 337L341 336z"/>
<path style="fill:#a16d4d; stroke:none;" d="M362.667 336.333L363.333 336.667L362.667 336.333M419 336L420 337L419 336z"/>
<path style="fill:#624760; stroke:none;" d="M420 336L421 337L420 336z"/>
<path style="fill:#a16d4d; stroke:none;" d="M444 336L445 337L444 336M468 336L468 339L469 339L468 336M342 337L342 340L343 340L342 337M360.667 337.333L361.333 337.667L360.667 337.333M416.667 337.333L417.333 337.667L416.667 337.333z"/>
<path style="fill:#624760; stroke:none;" d="M418 337L419 338L418 337M443 337L438 344L443 337z"/>
<path style="fill:#a16d4d; stroke:none;" d="M303 338L302 354C305.444 350.99 304.674 341.989 303 338M359 338L360 339L359 338M414 338L415 339L414 338z"/>
<path style="fill:#624760; stroke:none;" d="M415 338L416 339L415 338z"/>
<path style="fill:#a16d4d; stroke:none;" d="M443 338L444 339L443 338M358 339L359 340L358 339M411 339L412 340L411 339z"/>
<path style="fill:#624760; stroke:none;" d="M412 339L413 340L412 339z"/>
<path style="fill:#a16d4d; stroke:none;" d="M442 339L443 340L442 339M467.333 339.667L467.667 340.333L467.333 339.667M343 340L344 341L343 340M356 340L357 341L356 340M409 340L410 341L409 340z"/>
<path style="fill:#624760; stroke:none;" d="M410 340L411 341L410 340z"/>
<path style="fill:#a16d4d; stroke:none;" d="M441.333 340.667L441.667 341.333L441.333 340.667M299 341L300 346L301 346L299 341M344 341L345 342L344 341z"/>
<path style="fill:#624760; stroke:none;" d="M354 341L355 342L354 341z"/>
<path style="fill:#a16d4d; stroke:none;" d="M407 341L408 342L407 341z"/>
<path style="fill:#624760; stroke:none;" d="M408 341L409 342L408 341z"/>
<path style="fill:#a16d4d; stroke:none;" d="M466 341L465 345L466 345L466 341M346 342L347 343L346 342z"/>
<path style="fill:#624760; stroke:none;" d="M351 342L352 343L351 342M353 342L354 343L353 342z"/>
<path style="fill:#a16d4d; stroke:none;" d="M378 342L379 343L378 342M405 342L403 355L404 355L405 342z"/>
<path style="fill:#624760; stroke:none;" d="M406 342L407 343L406 342z"/>
<path style="fill:#a16d4d; stroke:none;" d="M440 342L441 343L440 342z"/>
<path style="fill:#624760; stroke:none;" d="M347 343L347 344L351 344L347 343M405 343L406 344L405 343z"/>
<path style="fill:#a16d4d; stroke:none;" d="M439 343L440 344L439 343z"/>
<path style="fill:#624760; stroke:none;" d="M466 343L467 344L466 343z"/>
<path style="fill:#a16d4d; stroke:none;" d="M438 344L439 345L438 344z"/>
<path style="fill:#624760; stroke:none;" d="M299 345L300 346L299 345M404 345L405 346L404 345z"/>
<path style="fill:#a16d4d; stroke:none;" d="M437 345L438 346L437 345z"/>
<path style="fill:#624760; stroke:none;" d="M465 345L466 346L465 345M300.333 346.667L300.667 347.333L300.333 346.667z"/>
<path style="fill:#a16d4d; stroke:none;" d="M377 346L378 347L377 346M436 346L437 347L436 346M463.333 346.667L463.667 347.333L463.333 346.667z"/>
<path style="fill:#624760; stroke:none;" d="M464 346L465 347L464 346z"/>
<path style="fill:#a16d4d; stroke:none;" d="M435 347L436 348L435 347M300 348L301 349L300 348M434 348L435 349L434 348z"/>
<path style="fill:#624760; stroke:none;" d="M463 348L464 349L463 348M300 349L301 350L300 349z"/>
<path style="fill:#a16d4d; stroke:none;" d="M376 349L377 350L376 349M433 349L434 350L433 349z"/>
<path style="fill:#624760; stroke:none;" d="M462.333 349.667L462.667 350.333L462.333 349.667M301 350L301 353L302 353L301 350M375 350L376 351L375 350z"/>
<path style="fill:#a16d4d; stroke:none;" d="M432 350L433 351L432 350M375 351L376 352L375 351M431 351L432 352L431 351z"/>
<path style="fill:#624760; stroke:none;" d="M461 351L462 352L461 351z"/>
<path style="fill:#a16d4d; stroke:none;" d="M374 352L375 353L374 352M430 352L431 353L430 352z"/>
<path style="fill:#624760; stroke:none;" d="M460 352L461 353L460 352M373 353L374 354L373 353M425 356L429 354L425 356z"/>
<path style="fill:#a16d4d; stroke:none;" d="M429 353L430 354L429 353z"/>
<path style="fill:#010101; stroke:none;" d="M1352 353L1347 362L1351 362L1351 370L1352 370C1353.5 364.203 1357.11 357.5 1352 353z"/>
<path style="fill:#624760; stroke:none;" d="M302 354L304 357L302 354z"/>
<path style="fill:#ff9d1a; stroke:none;" d="M303 354L304 355L303 354z"/>
<path style="fill:#a16d4d; stroke:none;" d="M373 354L374 355L373 354M427.667 354.333L428.333 354.667L427.667 354.333z"/>
<path style="fill:#624760; stroke:none;" d="M459 354L460 355L459 354z"/>
<path style="fill:#010101; stroke:none;" d="M1559 354L1560 355L1559 354z"/>
<path style="fill:#a16d4d; stroke:none;" d="M303 355L304 356L303 355M372 355L373 356L372 355M404 355L405 356L404 355M426 355L427 356L426 355z"/>
<path style="fill:#624760; stroke:none;" d="M458 355L459 356L458 355z"/>
<path style="fill:#a16d4d; stroke:none;" d="M371 356L372 357L371 356M405 356L406 357L405 356z"/>
<path style="fill:#624760; stroke:none;" d="M423 356L424 357L423 356z"/>
<path style="fill:#a16d4d; stroke:none;" d="M424.667 356.333L425.333 356.667L424.667 356.333z"/>
<path style="fill:#624760; stroke:none;" d="M457 356L458 357L457 356z"/>
<path style="fill:#a16d4d; stroke:none;" d="M370 357L371 358L370 357z"/>
<path style="fill:#624760; stroke:none;" d="M406 357L407 358L406 357M421 357L422 358L421 357z"/>
<path style="fill:#a16d4d; stroke:none;" d="M422.667 357.333L423.333 357.667L422.667 357.333z"/>
<path style="fill:#624760; stroke:none;" d="M456 357L457 358L456 357z"/>
<path style="fill:#a16d4d; stroke:none;" d="M369 358L370 359L369 358M407 358L408 359L407 358z"/>
<path style="fill:#624760; stroke:none;" d="M408 358L409 359L408 358M419 358L420 359L419 358z"/>
<path style="fill:#a16d4d; stroke:none;" d="M420.667 358.333L421.333 358.667L420.667 358.333M455 358L456 359L455 358M368 359L369 360L368 359M409 359L409 360L419 360L409 359z"/>
<path style="fill:#624760; stroke:none;" d="M455 359L456 360L455 359z"/>
<path style="fill:#a16d4d; stroke:none;" d="M367 360L368 361L367 360z"/>
<path style="fill:#624760; stroke:none;" d="M454 360L455 361L454 360z"/>
<path style="fill:#a16d4d; stroke:none;" d="M366 361L367 362L366 361z"/>
<path style="fill:#624760; stroke:none;" d="M453 361L454 362L453 361z"/>
<path style="fill:#a16d4d; stroke:none;" d="M365 362L366 363L365 362z"/>
<path style="fill:#624760; stroke:none;" d="M452 362L453 363L452 362z"/>
<path style="fill:#a16d4d; stroke:none;" d="M1345 362L1345 365L1346 365L1345 362z"/>
<path style="fill:#010d7d; stroke:none;" d="M1346 362C1343.04 379.225 1329.86 393.385 1320 407C1339.04 406.998 1351 378.869 1351 362L1346 362z"/>
<path style="fill:#010101; stroke:none;" d="M1566 362L1568 364L1566 362z"/>
<path style="fill:#624760; stroke:none;" d="M363 363L364 364L363 363z"/>
<path style="fill:#a16d4d; stroke:none;" d="M364 363L365 364L364 363z"/>
<path style="fill:#624760; stroke:none;" d="M451 363L452 364L451 363M1312 363L1313 364L1312 363z"/>
<path style="fill:#a16d4d; stroke:none;" d="M362 364L363 365L362 364z"/>
<path style="fill:#624760; stroke:none;" d="M450 364L451 365L450 364M1311 364L1312 365L1311 364M360 365L361 366L360 365z"/>
<path style="fill:#a16d4d; stroke:none;" d="M361 365L362 366L361 365z"/>
<path style="fill:#624760; stroke:none;" d="M449 365L450 366L449 365M1310 365L1311 366L1310 365M1345 365L1346 366L1345 365z"/>
<path style="fill:#a16d4d; stroke:none;" d="M359 366L360 367L359 366M447 366L448 367L447 366z"/>
<path style="fill:#624760; stroke:none;" d="M448 366L449 367L448 366M357 367L358 368L357 367z"/>
<path style="fill:#a16d4d; stroke:none;" d="M358 367L359 368L358 367z"/>
<path style="fill:#624760; stroke:none;" d="M446.667 367.333L447.333 367.667L446.667 367.333M1309 367L1310 368L1309 367M1344 367L1345 368L1344 367M355 368L356 369L355 368z"/>
<path style="fill:#a16d4d; stroke:none;" d="M356 368L357 369L356 368z"/>
<path style="fill:#624760; stroke:none;" d="M445 368L446 369L445 368z"/>
<path style="fill:#a16d4d; stroke:none;" d="M1309 368L1310 369L1309 368z"/>
<path style="fill:#624760; stroke:none;" d="M353 369L354 370L353 369z"/>
<path style="fill:#a16d4d; stroke:none;" d="M354 369L355 370L354 369z"/>
<path style="fill:#624760; stroke:none;" d="M444 369L445 370L444 369z"/>
<path style="fill:#a16d4d; stroke:none;" d="M1343 369L1344 370L1343 369z"/>
<path style="fill:#624760; stroke:none;" d="M351 370L352 371L351 370z"/>
<path style="fill:#a16d4d; stroke:none;" d="M352 370L353 371L352 370M442 370L443 371L442 370z"/>
<path style="fill:#624760; stroke:none;" d="M443 370L444 371L443 370M1308 370L1309 371L1308 370M1343 370L1344 371L1343 370M349 371L350 372L349 371z"/>
<path style="fill:#a16d4d; stroke:none;" d="M350 371L351 372L350 371M440 371L441 372L440 371z"/>
<path style="fill:#624760; stroke:none;" d="M441 371L442 372L441 371z"/>
<path style="fill:#a16d4d; stroke:none;" d="M1308 371L1308 374L1309 374L1308 371z"/>
<path style="fill:#624760; stroke:none;" d="M347 372L348 373L347 372z"/>
<path style="fill:#a16d4d; stroke:none;" d="M348 372L349 373L348 372M438 372L439 373L438 372z"/>
<path style="fill:#624760; stroke:none;" d="M439 372L440 373L439 372z"/>
<path style="fill:#a16d4d; stroke:none;" d="M1342 372L1343 373L1342 372z"/>
<path style="fill:#624760; stroke:none;" d="M1350 372L1351 373L1350 372M346 373L347 374L346 373M438 373L439 374L438 373M1342 373L1343 374L1342 373z"/>
<path style="fill:#a16d4d; stroke:none;" d="M1350 373L1351 374L1350 373z"/>
<path style="fill:#624760; stroke:none;" d="M344 374L345 375L344 374z"/>
<path style="fill:#a16d4d; stroke:none;" d="M345 374L346 375L345 374z"/>
<path style="fill:#624760; stroke:none;" d="M436 374L437 375L436 374M342 375L343 376L342 375z"/>
<path style="fill:#a16d4d; stroke:none;" d="M343 375L344 376L343 375M433 375L434 376L433 375z"/>
<path style="fill:#624760; stroke:none;" d="M434.667 375.333L435.333 375.667L434.667 375.333z"/>
<path style="fill:#a16d4d; stroke:none;" d="M1307 375L1308 376L1307 375z"/>
<path style="fill:#624760; stroke:none;" d="M1341 375L1342 376L1341 375M341 376L342 377L341 376z"/>
<path style="fill:#a16d4d; stroke:none;" d="M431 376L428 377L428 378L432 377L431 376z"/>
<path style="fill:#624760; stroke:none;" d="M432.667 376.333L433.333 376.667L432.667 376.333z"/>
<path style="fill:#a16d4d; stroke:none;" d="M1306 376L1307 377L1306 376M341 377L342 378L341 377z"/>
<path style="fill:#624760; stroke:none;" d="M431 377L432 378L431 377M1304 377L1305 378L1304 377z"/>
<path style="fill:#a16d4d; stroke:none;" d="M1340 377L1341 378L1340 377z"/>
<path style="fill:#624760; stroke:none;" d="M1349 377L1350 378L1349 377M340 378L341 379L340 378z"/>
<path style="fill:#a16d4d; stroke:none;" d="M425 378L425 379L428 379L425 378z"/>
<path style="fill:#624760; stroke:none;" d="M1303 378L1304 379L1303 378z"/>
<path style="fill:#a16d4d; stroke:none;" d="M1349 378L1350 379L1349 378M340 379L341 380L340 379z"/>
<path style="fill:#624760; stroke:none;" d="M1339 379L1340 380L1339 379M339 380L340 381L339 380z"/>
<path style="fill:#a16d4d; stroke:none;" d="M1302 380L1303 381L1302 380M1348 380L1349 381L1348 380M339 381L340 382L339 381M388 381L388 382L392 382L388 381z"/>
<path style="fill:#624760; stroke:none;" d="M1301 381L1302 382L1301 381M1338 381L1339 382L1338 381z"/>
<path style="fill:#a16d4d; stroke:none;" d="M386 382L387 383L386 382z"/>
<path style="fill:#624760; stroke:none;" d="M387 382L388 383L387 382M392 382L393 383L392 382z"/>
<path style="fill:#a16d4d; stroke:none;" d="M393.667 382.333L394.333 382.667L393.667 382.333z"/>
<path style="fill:#624760; stroke:none;" d="M425 382L426 383L425 382z"/>
<path style="fill:#a16d4d; stroke:none;" d="M1337 382L1338 383L1337 382M1350 382L1349 384L1350 382z"/>
<path style="fill:#010101; stroke:none;" d="M1604 385L1608 386L1609 383L1604 385z"/>
<path style="fill:#a16d4d; stroke:none;" d="M339 383L340 384L339 383z"/>
<path style="fill:#624760; stroke:none;" d="M385 383L386 384L385 383M395 383L400 388L395 383z"/>
<path style="fill:#a16d4d; stroke:none;" d="M396 383L397 384L396 383z"/>
<path style="fill:#624760; stroke:none;" d="M1346 383L1347 384L1346 383z"/>
<path style="fill:#010d7d; stroke:none;" d="M1350 383L1336 407L1351 407L1350 383z"/>
<path style="fill:#624760; stroke:none;" d="M384 384L385 385L384 384z"/>
<path style="fill:#a16d4d; stroke:none;" d="M397 384L398 385L397 384z"/>
<path style="fill:#624760; stroke:none;" d="M426 384L428 386L426 384M1336 384L1337 385L1336 384z"/>
<path style="fill:#a16d4d; stroke:none;" d="M1346 384L1347 385L1346 384z"/>
<path style="fill:#624760; stroke:none;" d="M383 385L384 386L383 385z"/>
<path style="fill:#a16d4d; stroke:none;" d="M398 385L399 386L398 385M426 385L427 386L426 385z"/>
<path style="fill:#624760; stroke:none;" d="M1335 385L1336 386L1335 385M1345 385L1346 386L1345 385z"/>
<path style="fill:#a16d4d; stroke:none;" d="M1348 385L1349 386L1348 385z"/>
<path style="fill:#624760; stroke:none;" d="M382 386L383 387L382 386z"/>
<path style="fill:#a16d4d; stroke:none;" d="M399 386L400 387L399 386M427 386L428 387L427 386M1297 386L1298 387L1297 386M1334 386L1335 387L1334 386z"/>
<path style="fill:#624760; stroke:none;" d="M1348 386L1349 387L1348 386z"/>
<path style="fill:#010101; stroke:none;" d="M1609 386L1618 395L1609 386z"/>
<path style="fill:#a16d4d; stroke:none;" d="M339 387L340 388L339 387M381 387L382 388L381 387M400 387L400 392L401 392L400 387z"/>
<path style="fill:#624760; stroke:none;" d="M428 387L428 390L429 390L428 387z"/>
<path style="fill:#a16d4d; stroke:none;" d="M1296 387L1297 388L1296 387z"/>
<path style="fill:#624760; stroke:none;" d="M381 388L382 389L381 388z"/>
<path style="fill:#a16d4d; stroke:none;" d="M1295 388L1296 389L1295 388z"/>
<path style="fill:#624760; stroke:none;" d="M1333 388L1334 389L1333 388z"/>
<path style="fill:#a16d4d; stroke:none;" d="M1343 388L1344 389L1343 388M1347 388L1348 389L1347 388M339 389L340 390L339 389z"/>
<path style="fill:#624760; stroke:none;" d="M380 389L381 390L380 389M1294 389L1295 390L1294 389z"/>
<path style="fill:#a16d4d; stroke:none;" d="M1342 389L1343 390L1342 389z"/>
<path style="fill:#624760; stroke:none;" d="M1347 389L1348 390L1347 389M339 390L340 391L339 390M379 390L380 391L379 390z"/>
<path style="fill:#a16d4d; stroke:none;" d="M428 390L429 391L428 390M1332 390L1333 391L1332 390M1341 390L1342 391L1341 390M340 391L340 394L341 394L340 391M378.333 391.667L378.667 392.333L378.333 391.667z"/>
<path style="fill:#624760; stroke:none;" d="M429 391L429 396L430 396L429 391M1293 391L1294 392L1293 391z"/>
<path style="fill:#a16d4d; stroke:none;" d="M1346 391L1347 392L1346 391z"/>
<path style="fill:#624760; stroke:none;" d="M400 392L401 393L400 392M1330 392L1331 393L1330 392M1340 392L1341 393L1340 392M377 393L378 394L377 393z"/>
<path style="fill:#a16d4d; stroke:none;" d="M401 393L401 398L402 398L401 393M1292 393L1293 394L1292 393z"/>
<path style="fill:#624760; stroke:none;" d="M1339 393L1340 394L1339 393M1345 393L1346 394L1345 393z"/>
<path style="fill:#a16d4d; stroke:none;" d="M341.333 394.667L341.667 395.333L341.333 394.667M376 394L377 395L376 394z"/>
<path style="fill:#624760; stroke:none;" d="M1328 394L1329 395L1328 394M1338 394L1339 395L1338 394z"/>
<path style="fill:#a16d4d; stroke:none;" d="M1344 394L1345 395L1344 394z"/>
<path style="fill:#624760; stroke:none;" d="M376 395L377 396L376 395z"/>
<path style="fill:#a16d4d; stroke:none;" d="M1290 395L1291 396L1290 395z"/>
<path style="fill:#624760; stroke:none;" d="M1327 395L1328 396L1327 395z"/>
<path style="fill:#a16d4d; stroke:none;" d="M1338 395L1339 396L1338 395z"/>
<path style="fill:#010101; stroke:none;" d="M1619 395L1631 405C1628.69 399.919 1624.2 396.853 1619 395z"/>
<path style="fill:#a16d4d; stroke:none;" d="M342 396L343 397L342 396M375 396L376 397L375 396z"/>
<path style="fill:#624760; stroke:none;" d="M428 396L429 397L428 396z"/>
<path style="fill:#a16d4d; stroke:none;" d="M1326 396L1327 397L1326 396z"/>
<path style="fill:#624760; stroke:none;" d="M1343 396L1344 397L1343 396z"/>
<path style="fill:#a16d4d; stroke:none;" d="M343 397L344 398L343 397M374 397L375 398L374 397M1289 397L1290 398L1289 397z"/>
<path style="fill:#624760; stroke:none;" d="M1326.33 397.667L1326.67 398.333L1326.33 397.667z"/>
<path style="fill:#a16d4d; stroke:none;" d="M1336 397L1337 398L1336 397M344 398L345 399L344 398M373 398L374 399L373 398z"/>
<path style="fill:#624760; stroke:none;" d="M401 398L403 401L401 398M427 398L428 399L427 398M1335 398L1336 399L1335 398z"/>
<path style="fill:#a16d4d; stroke:none;" d="M1342 398L1343 399L1342 398M345 399L346 400L345 399M372 399L373 400L372 399M402 399L403 400L402 399z"/>
<path style="fill:#624760; stroke:none;" d="M1288 399L1289 400L1288 399M1334 399L1335 400L1334 399M1342 399L1343 400L1342 399M346 400L347 401L346 400z"/>
<path style="fill:#a16d4d; stroke:none;" d="M347 400L348 401L347 400M371 400L372 401L371 400z"/>
<path style="fill:#624760; stroke:none;" d="M426 400L427 401L426 400z"/>
<path style="fill:#a16d4d; stroke:none;" d="M1288 400L1289 401L1288 400M1325 400L1326 401L1325 400M1333 400L1334 401L1333 400M1341 400L1342 401L1341 400z"/>
<path style="fill:#624760; stroke:none;" d="M348 401L349 402L348 401z"/>
<path style="fill:#a16d4d; stroke:none;" d="M370 401L371 402L370 401M403 401L404 402L403 401z"/>
<path style="fill:#624760; stroke:none;" d="M425 401L426 402L425 401M1287 401L1288 402L1287 401M1325 401L1326 402L1325 401M1331 401L1332 402L1331 401z"/>
<path style="fill:#a16d4d; stroke:none;" d="M1340 401L1341 402L1340 401z"/>
<path style="fill:#624760; stroke:none;" d="M349 402L350 403L349 402z"/>
<path style="fill:#a16d4d; stroke:none;" d="M350 402L351 403L350 402M369 402L370 403L369 402M404 402L405 403L404 402M422 402L421 404L422 402z"/>
<path style="fill:#624760; stroke:none;" d="M423.667 402.333L424.333 402.667L423.667 402.333z"/>
<path style="fill:#a16d4d; stroke:none;" d="M1323 402L1324 403L1323 402M1339 402L1340 403L1339 402z"/>
<path style="fill:#624760; stroke:none;" d="M351 403L352 404L351 403z"/>
<path style="fill:#a16d4d; stroke:none;" d="M352.667 403.333L353.333 403.667L352.667 403.333M368 403L369 404L368 403M405 403L406 404L405 403z"/>
<path style="fill:#624760; stroke:none;" d="M422 403L423 404L422 403z"/>
<path style="fill:#a16d4d; stroke:none;" d="M1286 403L1287 404L1286 403z"/>
<path style="fill:#624760; stroke:none;" d="M1322 403L1323 404L1322 403z"/>
<path style="fill:#a16d4d; stroke:none;" d="M1338 403L1339 404L1338 403z"/>
<path style="fill:#624760; stroke:none;" d="M353 404L353 405L357 406L357 405L353 404z"/>
<path style="fill:#a16d4d; stroke:none;" d="M356 404L357 405L356 404M365 404L366 405L365 404z"/>
<path style="fill:#624760; stroke:none;" d="M366.667 404.333L367.333 404.667L366.667 404.333M406 404L408 406L406 404z"/>
<path style="fill:#a16d4d; stroke:none;" d="M407 404L408 405L407 404M419 404L416 405L416 406L420 405L419 404z"/>
<path style="fill:#624760; stroke:none;" d="M420.667 404.333L421.333 404.667L420.667 404.333z"/>
<path style="fill:#a16d4d; stroke:none;" d="M1285 404L1286 405L1285 404z"/>
<path style="fill:#624760; stroke:none;" d="M1321 404L1322 405L1321 404z"/>
<path style="fill:#a16d4d; stroke:none;" d="M357 405L357 406L364 406L357 405z"/>
<path style="fill:#624760; stroke:none;" d="M364 405L365 406L364 405z"/>
<path style="fill:#a16d4d; stroke:none;" d="M408 405L408 406L412 406L408 405z"/>
<path style="fill:#624760; stroke:none;" d="M419 405L420 406L419 405z"/>
<path style="fill:#a16d4d; stroke:none;" d="M1284 405L1285 406L1284 405M1320 405L1321 406L1320 405z"/>
<path style="fill:#624760; stroke:none;" d="M1330 405L1331 406L1330 405z"/>
<path style="fill:#a16d4d; stroke:none;" d="M1336 405L1337 406L1336 405z"/>
<path style="fill:#624760; stroke:none;" d="M1282 406L1283 407L1282 406z"/>
<path style="fill:#a16d4d; stroke:none;" d="M1319 406L1320 407L1319 406M1330 406L1331 407L1330 406z"/>
<path style="fill:#010101; stroke:none;" d="M1329 407C1326.11 407.002 1321.85 406.348 1319.6 408.603C1317.72 410.494 1317.28 416.361 1321.09 416.248C1324.92 416.135 1327.35 409.763 1329 407z"/>
<path style="fill:#010d7d; stroke:none;" d="M572 498L570 489C560.951 491.075 552.202 493.741 543 490.451C522.906 483.268 518.911 454.213 534.043 440.185C544 430.956 557.061 432.182 569 436L572 427C553.087 418.863 528.027 424.237 517.901 443C504.449 467.927 519.501 499.528 548 501.13C556.359 501.599 564.052 500.541 572 498M611 423.71C577.836 424.151 562.779 469.997 586.184 492.699C593.97 500.251 603.713 501.254 614 500.985C657.468 499.851 655.495 423.118 611 423.71M747 425L747 500L757 500L757 470C766.136 470 775.863 471.069 784 466.005C795.901 458.599 798.742 437.809 786.907 428.8C777.04 421.29 758.53 422.859 747 425M1122 425L1122 501C1138.27 501 1156.98 503.527 1171 493.363C1190.08 479.522 1190.1 442.289 1170 429.559C1156.72 421.152 1136.87 423.12 1122 425M660 425C655.593 448.739 655 475.849 655 500L665 500L668 439L669 439C670.398 455.036 678.596 471.789 683.667 487C685.483 492.449 686.396 500.981 693.949 499.847C699.389 499.031 700.745 490.378 702.308 486C707.697 470.909 715.651 454.903 718 439L719 439L722 500L732 500L728 425C724.347 425 717.78 423.742 714.699 426.028C711.022 428.755 709.591 436.868 708.05 441C702.882 454.863 695.295 470.145 694 485L693 485L674 425L660 425M792 500C805.853 500 808.116 488.754 810 476C815.963 476 830.772 473.317 835.298 477.603C840.717 482.735 838.345 494.643 844.51 498.972C847.172 500.841 851.917 500 855 500C852.07 480.163 842.002 460.007 835.667 441C832.689 432.066 831.589 423.21 820.055 425.148C813.807 426.198 812.361 437.918 810.667 443C804.536 461.391 794.837 480.792 792 500M866 425L866 500L876 500L876 440L877 440C881.418 455.338 893.211 469.569 901.576 483C904.52 487.726 907.722 495.924 912.518 498.972C915.547 500.897 920.564 500 924 500L924 425L914 425L914 483L889.319 442L878.391 426.028L866 425M932 425L955.301 469L956 500L966 500L966.638 470L992 425C988.467 425 982.677 423.909 979.637 426.028C971.775 431.507 965.628 450.285 962 459C956.968 450.378 952.527 431.728 944.363 426.028C941.326 423.908 935.53 425 932 425M1023 425L1023 501L1066 501L1066 491L1033 491L1033 425L1023 425M1058 425L1058 434L1081 434L1081 500L1091 500L1091 434L1114 434L1114 425L1058 425z"/>
<path style="fill:#010101; stroke:none;" d="M1637 425L1637 426L1641 427L1641 426L1637 425M1595.33 427.667L1595.67 428.333L1595.33 427.667M610 432.715C578.49 433.369 579.121 492.976 611 492.285C642.551 491.602 641.842 432.053 610 432.715M757 433L757 461C763.972 461.881 771.817 462.615 777.895 458.146C785.233 452.75 785.879 440.35 777.906 435.228C771.532 431.133 764.045 432.11 757 433M1132 433L1132 492C1142.55 493.958 1155.49 492.987 1163.96 485.671C1176.55 474.799 1177.19 449.037 1163.98 438.39C1154.72 430.917 1142.97 432.134 1132 433M823 437L813 468L834 468L823 437z"/>
<path style="fill:#ff9d1a; stroke:none;" d="M1295 477L1296 478L1295 477M1229.67 481.333L1230.33 481.667L1229.67 481.333z"/>
<path style="fill:#010101; stroke:none;" d="M1658 482L1664 486L1658 482z"/>
<path style="fill:#010d7d; stroke:none;" d="M1196 486.788C1186.84 487.328 1187.53 501.545 1196.99 500.872C1205.55 500.262 1204.69 486.276 1196 486.788z"/>
<path style="fill:#010101; stroke:none;" d="M1236 486L1237 487L1236 486M1243 492L1247 496L1245 492L1243 492z"/>
</svg>
